ISO-10303-21;
HEADER;
/* Generated by software containing ST-Developer
 * from STEP Tools, Inc. (www.steptools.com) 
 */

FILE_DESCRIPTION(
/* description */ (''),
/* implementation_level */ '2;1');

FILE_NAME(
/* name */ 'C:/dev/c-scape/hardponics/cad/onderkantje v5.step',
/* time_stamp */ '2019-02-21T18:53:24+01:00',
/* author */ ('designsparkKUDPL'),
/* organization */ (''),
/* preprocessor_version */ 'ST-DEVELOPER v17.2',
/* originating_system */ 'Autodesk Translation Framework v7.6.0.251',
/* authorisation */ '');

FILE_SCHEMA (('AUTOMOTIVE_DESIGN { 1 0 10303 214 3 1 1 }'));
ENDSEC;

DATA;
#10=MECHANICAL_DESIGN_GEOMETRIC_PRESENTATION_REPRESENTATION('',(#22,#23,
#24),#2034);
#11=SHAPE_REPRESENTATION_RELATIONSHIP('SRR','None',#2041,#12);
#12=ADVANCED_BREP_SHAPE_REPRESENTATION('',(#13),#2033);
#13=MANIFOLD_SOLID_BREP('Body1',#1203);
#14=CONICAL_SURFACE('',#1246,2.35,0.785398163397448);
#15=CONICAL_SURFACE('',#1251,2.35,0.785398163397448);
#16=FACE_BOUND('',#136,.T.);
#17=FACE_BOUND('',#137,.T.);
#18=FACE_BOUND('',#138,.T.);
#19=FACE_BOUND('',#174,.T.);
#20=FACE_BOUND('',#193,.T.);
#21=FACE_BOUND('',#194,.T.);
#22=STYLED_ITEM('',(#2052),#1149);
#23=STYLED_ITEM('',(#2053),#1158);
#24=STYLED_ITEM('',(#2051),#13);
#25=PLANE('',#1220);
#26=PLANE('',#1221);
#27=PLANE('',#1228);
#28=PLANE('',#1231);
#29=PLANE('',#1234);
#30=PLANE('',#1235);
#31=PLANE('',#1256);
#32=PLANE('',#1257);
#33=PLANE('',#1261);
#34=PLANE('',#1263);
#35=PLANE('',#1267);
#36=PLANE('',#1268);
#37=PLANE('',#1271);
#38=PLANE('',#1272);
#39=PLANE('',#1273);
#40=PLANE('',#1276);
#41=PLANE('',#1280);
#42=PLANE('',#1283);
#43=PLANE('',#1284);
#44=PLANE('',#1285);
#45=PLANE('',#1286);
#46=PLANE('',#1289);
#47=PLANE('',#1293);
#48=PLANE('',#1294);
#49=PLANE('',#1295);
#50=PLANE('',#1298);
#51=PLANE('',#1300);
#52=PLANE('',#1303);
#53=PLANE('',#1310);
#54=PLANE('',#1311);
#55=PLANE('',#1312);
#56=PLANE('',#1313);
#57=PLANE('',#1314);
#58=PLANE('',#1323);
#59=PLANE('',#1325);
#60=PLANE('',#1328);
#61=PLANE('',#1329);
#62=PLANE('',#1330);
#63=FACE_OUTER_BOUND('',#126,.T.);
#64=FACE_OUTER_BOUND('',#127,.T.);
#65=FACE_OUTER_BOUND('',#128,.T.);
#66=FACE_OUTER_BOUND('',#129,.T.);
#67=FACE_OUTER_BOUND('',#130,.T.);
#68=FACE_OUTER_BOUND('',#131,.T.);
#69=FACE_OUTER_BOUND('',#132,.T.);
#70=FACE_OUTER_BOUND('',#133,.T.);
#71=FACE_OUTER_BOUND('',#134,.T.);
#72=FACE_OUTER_BOUND('',#135,.T.);
#73=FACE_OUTER_BOUND('',#139,.T.);
#74=FACE_OUTER_BOUND('',#140,.T.);
#75=FACE_OUTER_BOUND('',#141,.T.);
#76=FACE_OUTER_BOUND('',#142,.T.);
#77=FACE_OUTER_BOUND('',#143,.T.);
#78=FACE_OUTER_BOUND('',#144,.T.);
#79=FACE_OUTER_BOUND('',#145,.T.);
#80=FACE_OUTER_BOUND('',#146,.T.);
#81=FACE_OUTER_BOUND('',#147,.T.);
#82=FACE_OUTER_BOUND('',#148,.T.);
#83=FACE_OUTER_BOUND('',#149,.T.);
#84=FACE_OUTER_BOUND('',#150,.T.);
#85=FACE_OUTER_BOUND('',#151,.T.);
#86=FACE_OUTER_BOUND('',#152,.T.);
#87=FACE_OUTER_BOUND('',#153,.T.);
#88=FACE_OUTER_BOUND('',#154,.T.);
#89=FACE_OUTER_BOUND('',#155,.T.);
#90=FACE_OUTER_BOUND('',#156,.T.);
#91=FACE_OUTER_BOUND('',#157,.T.);
#92=FACE_OUTER_BOUND('',#158,.T.);
#93=FACE_OUTER_BOUND('',#159,.T.);
#94=FACE_OUTER_BOUND('',#160,.T.);
#95=FACE_OUTER_BOUND('',#161,.T.);
#96=FACE_OUTER_BOUND('',#162,.T.);
#97=FACE_OUTER_BOUND('',#163,.T.);
#98=FACE_OUTER_BOUND('',#164,.T.);
#99=FACE_OUTER_BOUND('',#165,.T.);
#100=FACE_OUTER_BOUND('',#166,.T.);
#101=FACE_OUTER_BOUND('',#167,.T.);
#102=FACE_OUTER_BOUND('',#168,.T.);
#103=FACE_OUTER_BOUND('',#169,.T.);
#104=FACE_OUTER_BOUND('',#170,.T.);
#105=FACE_OUTER_BOUND('',#171,.T.);
#106=FACE_OUTER_BOUND('',#172,.T.);
#107=FACE_OUTER_BOUND('',#173,.T.);
#108=FACE_OUTER_BOUND('',#175,.T.);
#109=FACE_OUTER_BOUND('',#176,.T.);
#110=FACE_OUTER_BOUND('',#177,.T.);
#111=FACE_OUTER_BOUND('',#178,.T.);
#112=FACE_OUTER_BOUND('',#179,.T.);
#113=FACE_OUTER_BOUND('',#180,.T.);
#114=FACE_OUTER_BOUND('',#181,.T.);
#115=FACE_OUTER_BOUND('',#182,.T.);
#116=FACE_OUTER_BOUND('',#183,.T.);
#117=FACE_OUTER_BOUND('',#184,.T.);
#118=FACE_OUTER_BOUND('',#185,.T.);
#119=FACE_OUTER_BOUND('',#186,.T.);
#120=FACE_OUTER_BOUND('',#187,.T.);
#121=FACE_OUTER_BOUND('',#188,.T.);
#122=FACE_OUTER_BOUND('',#189,.T.);
#123=FACE_OUTER_BOUND('',#190,.T.);
#124=FACE_OUTER_BOUND('',#191,.T.);
#125=FACE_OUTER_BOUND('',#192,.T.);
#126=EDGE_LOOP('',(#773,#774,#775,#776));
#127=EDGE_LOOP('',(#777,#778,#779,#780));
#128=EDGE_LOOP('',(#781,#782,#783,#784,#785,#786,#787,#788,#789,#790,#791,
#792));
#129=EDGE_LOOP('',(#793,#794,#795,#796));
#130=EDGE_LOOP('',(#797,#798,#799,#800));
#131=EDGE_LOOP('',(#801,#802,#803,#804));
#132=EDGE_LOOP('',(#805,#806,#807,#808));
#133=EDGE_LOOP('',(#809,#810,#811,#812));
#134=EDGE_LOOP('',(#813,#814,#815,#816));
#135=EDGE_LOOP('',(#817,#818,#819,#820,#821,#822,#823,#824));
#136=EDGE_LOOP('',(#825,#826,#827,#828,#829,#830,#831,#832,#833,#834,#835,
#836));
#137=EDGE_LOOP('',(#837));
#138=EDGE_LOOP('',(#838));
#139=EDGE_LOOP('',(#839,#840,#841,#842,#843));
#140=EDGE_LOOP('',(#844,#845,#846,#847,#848));
#141=EDGE_LOOP('',(#849,#850,#851,#852,#853));
#142=EDGE_LOOP('',(#854,#855,#856,#857,#858));
#143=EDGE_LOOP('',(#859,#860,#861,#862));
#144=EDGE_LOOP('',(#863,#864,#865,#866));
#145=EDGE_LOOP('',(#867,#868,#869,#870));
#146=EDGE_LOOP('',(#871,#872,#873,#874,#875,#876));
#147=EDGE_LOOP('',(#877,#878,#879,#880,#881,#882,#883,#884,#885,#886,#887,
#888,#889,#890,#891,#892));
#148=EDGE_LOOP('',(#893,#894,#895,#896));
#149=EDGE_LOOP('',(#897,#898,#899,#900));
#150=EDGE_LOOP('',(#901,#902,#903,#904));
#151=EDGE_LOOP('',(#905,#906,#907,#908));
#152=EDGE_LOOP('',(#909,#910,#911,#912));
#153=EDGE_LOOP('',(#913,#914,#915,#916));
#154=EDGE_LOOP('',(#917,#918,#919,#920));
#155=EDGE_LOOP('',(#921,#922,#923,#924,#925,#926));
#156=EDGE_LOOP('',(#927,#928,#929,#930));
#157=EDGE_LOOP('',(#931,#932,#933,#934,#935,#936,#937,#938));
#158=EDGE_LOOP('',(#939,#940,#941,#942));
#159=EDGE_LOOP('',(#943,#944,#945,#946));
#160=EDGE_LOOP('',(#947,#948,#949,#950));
#161=EDGE_LOOP('',(#951,#952,#953,#954));
#162=EDGE_LOOP('',(#955,#956,#957,#958));
#163=EDGE_LOOP('',(#959,#960,#961,#962));
#164=EDGE_LOOP('',(#963,#964,#965,#966,#967,#968));
#165=EDGE_LOOP('',(#969,#970,#971,#972));
#166=EDGE_LOOP('',(#973,#974,#975,#976));
#167=EDGE_LOOP('',(#977,#978,#979,#980));
#168=EDGE_LOOP('',(#981,#982,#983,#984));
#169=EDGE_LOOP('',(#985,#986,#987,#988));
#170=EDGE_LOOP('',(#989,#990,#991,#992,#993,#994));
#171=EDGE_LOOP('',(#995,#996,#997,#998,#999,#1000,#1001,#1002));
#172=EDGE_LOOP('',(#1003,#1004,#1005,#1006));
#173=EDGE_LOOP('',(#1007,#1008,#1009,#1010,#1011,#1012,#1013,#1014,#1015,
#1016,#1017));
#174=EDGE_LOOP('',(#1018,#1019,#1020,#1021,#1022,#1023,#1024,#1025));
#175=EDGE_LOOP('',(#1026,#1027,#1028,#1029,#1030));
#176=EDGE_LOOP('',(#1031,#1032,#1033,#1034));
#177=EDGE_LOOP('',(#1035,#1036,#1037,#1038));
#178=EDGE_LOOP('',(#1039,#1040,#1041,#1042,#1043,#1044));
#179=EDGE_LOOP('',(#1045,#1046,#1047,#1048));
#180=EDGE_LOOP('',(#1049,#1050,#1051,#1052,#1053,#1054));
#181=EDGE_LOOP('',(#1055,#1056,#1057,#1058));
#182=EDGE_LOOP('',(#1059,#1060,#1061,#1062));
#183=EDGE_LOOP('',(#1063,#1064,#1065,#1066));
#184=EDGE_LOOP('',(#1067,#1068,#1069,#1070));
#185=EDGE_LOOP('',(#1071,#1072,#1073,#1074,#1075,#1076,#1077,#1078));
#186=EDGE_LOOP('',(#1079,#1080,#1081,#1082));
#187=EDGE_LOOP('',(#1083,#1084,#1085,#1086,#1087,#1088,#1089,#1090));
#188=EDGE_LOOP('',(#1091,#1092,#1093,#1094));
#189=EDGE_LOOP('',(#1095,#1096,#1097,#1098));
#190=EDGE_LOOP('',(#1099,#1100,#1101,#1102));
#191=EDGE_LOOP('',(#1103,#1104,#1105,#1106));
#192=EDGE_LOOP('',(#1107,#1108,#1109,#1110,#1111,#1112,#1113,#1114));
#193=EDGE_LOOP('',(#1115));
#194=EDGE_LOOP('',(#1116));
#195=LINE('',#1688,#316);
#196=LINE('',#1691,#317);
#197=LINE('',#1694,#318);
#198=LINE('',#1696,#319);
#199=LINE('',#1697,#320);
#200=LINE('',#1700,#321);
#201=LINE('',#1704,#322);
#202=LINE('',#1708,#323);
#203=LINE('',#1712,#324);
#204=LINE('',#1714,#325);
#205=LINE('',#1717,#326);
#206=LINE('',#1722,#327);
#207=LINE('',#1723,#328);
#208=LINE('',#1726,#329);
#209=LINE('',#1727,#330);
#210=LINE('',#1732,#331);
#211=LINE('',#1733,#332);
#212=LINE('',#1735,#333);
#213=LINE('',#1739,#334);
#214=LINE('',#1742,#335);
#215=LINE('',#1744,#336);
#216=LINE('',#1745,#337);
#217=LINE('',#1749,#338);
#218=LINE('',#1753,#339);
#219=LINE('',#1757,#340);
#220=LINE('',#1761,#341);
#221=LINE('',#1764,#342);
#222=LINE('',#1768,#343);
#223=LINE('',#1772,#344);
#224=LINE('',#1776,#345);
#225=LINE('',#1784,#346);
#226=LINE('',#1790,#347);
#227=LINE('',#1794,#348);
#228=LINE('',#1800,#349);
#229=LINE('',#1805,#350);
#230=LINE('',#1807,#351);
#231=LINE('',#1809,#352);
#232=LINE('',#1810,#353);
#233=LINE('',#1814,#354);
#234=LINE('',#1816,#355);
#235=LINE('',#1818,#356);
#236=LINE('',#1819,#357);
#237=LINE('',#1825,#358);
#238=LINE('',#1828,#359);
#239=LINE('',#1831,#360);
#240=LINE('',#1833,#361);
#241=LINE('',#1837,#362);
#242=LINE('',#1839,#363);
#243=LINE('',#1841,#364);
#244=LINE('',#1845,#365);
#245=LINE('',#1847,#366);
#246=LINE('',#1849,#367);
#247=LINE('',#1853,#368);
#248=LINE('',#1854,#369);
#249=LINE('',#1857,#370);
#250=LINE('',#1859,#371);
#251=LINE('',#1860,#372);
#252=LINE('',#1863,#373);
#253=LINE('',#1865,#374);
#254=LINE('',#1866,#375);
#255=LINE('',#1869,#376);
#256=LINE('',#1872,#377);
#257=LINE('',#1875,#378);
#258=LINE('',#1877,#379);
#259=LINE('',#1878,#380);
#260=LINE('',#1881,#381);
#261=LINE('',#1883,#382);
#262=LINE('',#1884,#383);
#263=LINE('',#1889,#384);
#264=LINE('',#1892,#385);
#265=LINE('',#1895,#386);
#266=LINE('',#1898,#387);
#267=LINE('',#1901,#388);
#268=LINE('',#1902,#389);
#269=LINE('',#1905,#390);
#270=LINE('',#1909,#391);
#271=LINE('',#1910,#392);
#272=LINE('',#1914,#393);
#273=LINE('',#1915,#394);
#274=LINE('',#1916,#395);
#275=LINE('',#1919,#396);
#276=LINE('',#1921,#397);
#277=LINE('',#1922,#398);
#278=LINE('',#1925,#399);
#279=LINE('',#1927,#400);
#280=LINE('',#1928,#401);
#281=LINE('',#1933,#402);
#282=LINE('',#1936,#403);
#283=LINE('',#1939,#404);
#284=LINE('',#1943,#405);
#285=LINE('',#1944,#406);
#286=LINE('',#1947,#407);
#287=LINE('',#1949,#408);
#288=LINE('',#1950,#409);
#289=LINE('',#1953,#410);
#290=LINE('',#1955,#411);
#291=LINE('',#1956,#412);
#292=LINE('',#1961,#413);
#293=LINE('',#1964,#414);
#294=LINE('',#1967,#415);
#295=LINE('',#1969,#416);
#296=LINE('',#1970,#417);
#297=LINE('',#1973,#418);
#298=LINE('',#1977,#419);
#299=LINE('',#1979,#420);
#300=LINE('',#1982,#421);
#301=LINE('',#1985,#422);
#302=LINE('',#1989,#423);
#303=LINE('',#1991,#424);
#304=LINE('',#1994,#425);
#305=LINE('',#1997,#426);
#306=LINE('',#1998,#427);
#307=LINE('',#2000,#428);
#308=LINE('',#2005,#429);
#309=LINE('',#2010,#430);
#310=LINE('',#2013,#431);
#311=LINE('',#2018,#432);
#312=LINE('',#2020,#433);
#313=LINE('',#2022,#434);
#314=LINE('',#2027,#435);
#315=LINE('',#2029,#436);
#316=VECTOR('',#1337,10.);
#317=VECTOR('',#1340,10.);
#318=VECTOR('',#1343,10.);
#319=VECTOR('',#1344,10.);
#320=VECTOR('',#1345,10.);
#321=VECTOR('',#1348,10.);
#322=VECTOR('',#1351,10.);
#323=VECTOR('',#1354,10.);
#324=VECTOR('',#1357,10.);
#325=VECTOR('',#1358,10.);
#326=VECTOR('',#1361,10.);
#327=VECTOR('',#1366,10.);
#328=VECTOR('',#1367,10.);
#329=VECTOR('',#1370,10.);
#330=VECTOR('',#1371,10.);
#331=VECTOR('',#1376,10.);
#332=VECTOR('',#1377,10.);
#333=VECTOR('',#1380,10.);
#334=VECTOR('',#1385,10.);
#335=VECTOR('',#1388,10.);
#336=VECTOR('',#1389,10.);
#337=VECTOR('',#1390,10.);
#338=VECTOR('',#1393,10.);
#339=VECTOR('',#1396,10.);
#340=VECTOR('',#1399,10.);
#341=VECTOR('',#1402,10.);
#342=VECTOR('',#1405,10.);
#343=VECTOR('',#1408,10.);
#344=VECTOR('',#1411,10.);
#345=VECTOR('',#1414,10.);
#346=VECTOR('',#1423,2.35);
#347=VECTOR('',#1430,2.1);
#348=VECTOR('',#1435,2.35);
#349=VECTOR('',#1442,2.1);
#350=VECTOR('',#1447,10.);
#351=VECTOR('',#1448,10.);
#352=VECTOR('',#1449,10.);
#353=VECTOR('',#1450,10.);
#354=VECTOR('',#1453,10.);
#355=VECTOR('',#1454,10.);
#356=VECTOR('',#1455,10.);
#357=VECTOR('',#1456,10.);
#358=VECTOR('',#1465,10.);
#359=VECTOR('',#1468,10.);
#360=VECTOR('',#1471,10.);
#361=VECTOR('',#1472,10.);
#362=VECTOR('',#1475,10.);
#363=VECTOR('',#1476,10.);
#364=VECTOR('',#1477,10.);
#365=VECTOR('',#1480,10.);
#366=VECTOR('',#1481,10.);
#367=VECTOR('',#1482,10.);
#368=VECTOR('',#1485,10.);
#369=VECTOR('',#1486,10.);
#370=VECTOR('',#1489,10.);
#371=VECTOR('',#1490,10.);
#372=VECTOR('',#1491,10.);
#373=VECTOR('',#1494,10.);
#374=VECTOR('',#1495,10.);
#375=VECTOR('',#1496,10.);
#376=VECTOR('',#1499,10.);
#377=VECTOR('',#1504,10.);
#378=VECTOR('',#1507,10.);
#379=VECTOR('',#1508,10.);
#380=VECTOR('',#1509,10.);
#381=VECTOR('',#1512,10.);
#382=VECTOR('',#1513,10.);
#383=VECTOR('',#1514,10.);
#384=VECTOR('',#1521,10.);
#385=VECTOR('',#1524,10.);
#386=VECTOR('',#1527,10.);
#387=VECTOR('',#1530,10.);
#388=VECTOR('',#1533,10.);
#389=VECTOR('',#1534,10.);
#390=VECTOR('',#1537,10.);
#391=VECTOR('',#1542,10.);
#392=VECTOR('',#1543,10.);
#393=VECTOR('',#1546,10.);
#394=VECTOR('',#1547,10.);
#395=VECTOR('',#1548,10.);
#396=VECTOR('',#1551,10.);
#397=VECTOR('',#1552,10.);
#398=VECTOR('',#1553,10.);
#399=VECTOR('',#1556,10.);
#400=VECTOR('',#1557,10.);
#401=VECTOR('',#1558,10.);
#402=VECTOR('',#1565,10.);
#403=VECTOR('',#1568,10.);
#404=VECTOR('',#1571,10.);
#405=VECTOR('',#1576,10.);
#406=VECTOR('',#1577,10.);
#407=VECTOR('',#1580,10.);
#408=VECTOR('',#1581,10.);
#409=VECTOR('',#1582,10.);
#410=VECTOR('',#1585,10.);
#411=VECTOR('',#1586,10.);
#412=VECTOR('',#1587,10.);
#413=VECTOR('',#1594,10.);
#414=VECTOR('',#1597,10.);
#415=VECTOR('',#1600,10.);
#416=VECTOR('',#1601,10.);
#417=VECTOR('',#1602,10.);
#418=VECTOR('',#1605,10.);
#419=VECTOR('',#1610,10.);
#420=VECTOR('',#1613,10.);
#421=VECTOR('',#1616,10.);
#422=VECTOR('',#1619,10.);
#423=VECTOR('',#1624,10.);
#424=VECTOR('',#1625,10.);
#425=VECTOR('',#1630,10.);
#426=VECTOR('',#1633,10.);
#427=VECTOR('',#1634,10.);
#428=VECTOR('',#1637,10.);
#429=VECTOR('',#1644,10.);
#430=VECTOR('',#1651,10.);
#431=VECTOR('',#1654,10.);
#432=VECTOR('',#1661,10.);
#433=VECTOR('',#1664,10.);
#434=VECTOR('',#1667,10.);
#435=VECTOR('',#1676,10.);
#436=VECTOR('',#1679,10.);
#437=CIRCLE('',#1218,2.);
#438=CIRCLE('',#1219,2.);
#439=CIRCLE('',#1222,2.);
#440=CIRCLE('',#1223,2.);
#441=CIRCLE('',#1224,2.);
#442=CIRCLE('',#1225,3.25);
#443=CIRCLE('',#1227,2.);
#444=CIRCLE('',#1230,2.);
#445=CIRCLE('',#1233,2.);
#446=CIRCLE('',#1236,8.);
#447=CIRCLE('',#1237,8.);
#448=CIRCLE('',#1238,8.);
#449=CIRCLE('',#1239,8.);
#450=CIRCLE('',#1240,4.);
#451=CIRCLE('',#1241,3.99999999999999);
#452=CIRCLE('',#1242,4.);
#453=CIRCLE('',#1243,3.99999999999999);
#454=CIRCLE('',#1244,2.6);
#455=CIRCLE('',#1245,2.6);
#456=CIRCLE('',#1247,2.1);
#457=CIRCLE('',#1248,2.1);
#458=CIRCLE('',#1250,2.1);
#459=CIRCLE('',#1252,2.1);
#460=CIRCLE('',#1253,2.1);
#461=CIRCLE('',#1255,2.1);
#462=CIRCLE('',#1259,4.00000000000002);
#463=CIRCLE('',#1260,4.00000000000002);
#464=CIRCLE('',#1262,2.);
#465=CIRCLE('',#1264,4.00000000000002);
#466=CIRCLE('',#1265,4.00000000000002);
#467=CIRCLE('',#1266,4.00000000000002);
#468=CIRCLE('',#1270,4.);
#469=CIRCLE('',#1275,4.00000000000002);
#470=CIRCLE('',#1277,1.99999999999999);
#471=CIRCLE('',#1279,1.99999999999999);
#472=CIRCLE('',#1282,3.99999999999999);
#473=CIRCLE('',#1288,4.00000000000002);
#474=CIRCLE('',#1290,2.);
#475=CIRCLE('',#1292,4.);
#476=CIRCLE('',#1297,4.00000000000002);
#477=CIRCLE('',#1299,1.99999999999999);
#478=CIRCLE('',#1302,1.99999999999999);
#479=CIRCLE('',#1304,3.99999999999999);
#480=CIRCLE('',#1305,2.);
#481=CIRCLE('',#1306,2.);
#482=CIRCLE('',#1308,3.25);
#483=CIRCLE('',#1309,3.25);
#484=CIRCLE('',#1316,8.);
#485=CIRCLE('',#1318,8.);
#486=CIRCLE('',#1320,8.);
#487=CIRCLE('',#1322,8.);
#488=VERTEX_POINT('',#1684);
#489=VERTEX_POINT('',#1685);
#490=VERTEX_POINT('',#1687);
#491=VERTEX_POINT('',#1689);
#492=VERTEX_POINT('',#1693);
#493=VERTEX_POINT('',#1695);
#494=VERTEX_POINT('',#1699);
#495=VERTEX_POINT('',#1701);
#496=VERTEX_POINT('',#1703);
#497=VERTEX_POINT('',#1705);
#498=VERTEX_POINT('',#1707);
#499=VERTEX_POINT('',#1709);
#500=VERTEX_POINT('',#1711);
#501=VERTEX_POINT('',#1713);
#502=VERTEX_POINT('',#1715);
#503=VERTEX_POINT('',#1719);
#504=VERTEX_POINT('',#1720);
#505=VERTEX_POINT('',#1725);
#506=VERTEX_POINT('',#1729);
#507=VERTEX_POINT('',#1730);
#508=VERTEX_POINT('',#1737);
#509=VERTEX_POINT('',#1741);
#510=VERTEX_POINT('',#1743);
#511=VERTEX_POINT('',#1747);
#512=VERTEX_POINT('',#1748);
#513=VERTEX_POINT('',#1750);
#514=VERTEX_POINT('',#1752);
#515=VERTEX_POINT('',#1754);
#516=VERTEX_POINT('',#1756);
#517=VERTEX_POINT('',#1758);
#518=VERTEX_POINT('',#1760);
#519=VERTEX_POINT('',#1763);
#520=VERTEX_POINT('',#1765);
#521=VERTEX_POINT('',#1767);
#522=VERTEX_POINT('',#1769);
#523=VERTEX_POINT('',#1771);
#524=VERTEX_POINT('',#1773);
#525=VERTEX_POINT('',#1775);
#526=VERTEX_POINT('',#1778);
#527=VERTEX_POINT('',#1780);
#528=VERTEX_POINT('',#1783);
#529=VERTEX_POINT('',#1785);
#530=VERTEX_POINT('',#1789);
#531=VERTEX_POINT('',#1793);
#532=VERTEX_POINT('',#1795);
#533=VERTEX_POINT('',#1799);
#534=VERTEX_POINT('',#1803);
#535=VERTEX_POINT('',#1804);
#536=VERTEX_POINT('',#1806);
#537=VERTEX_POINT('',#1808);
#538=VERTEX_POINT('',#1812);
#539=VERTEX_POINT('',#1813);
#540=VERTEX_POINT('',#1815);
#541=VERTEX_POINT('',#1817);
#542=VERTEX_POINT('',#1824);
#543=VERTEX_POINT('',#1826);
#544=VERTEX_POINT('',#1830);
#545=VERTEX_POINT('',#1832);
#546=VERTEX_POINT('',#1834);
#547=VERTEX_POINT('',#1836);
#548=VERTEX_POINT('',#1838);
#549=VERTEX_POINT('',#1840);
#550=VERTEX_POINT('',#1842);
#551=VERTEX_POINT('',#1844);
#552=VERTEX_POINT('',#1846);
#553=VERTEX_POINT('',#1848);
#554=VERTEX_POINT('',#1850);
#555=VERTEX_POINT('',#1852);
#556=VERTEX_POINT('',#1856);
#557=VERTEX_POINT('',#1858);
#558=VERTEX_POINT('',#1862);
#559=VERTEX_POINT('',#1864);
#560=VERTEX_POINT('',#1868);
#561=VERTEX_POINT('',#1874);
#562=VERTEX_POINT('',#1876);
#563=VERTEX_POINT('',#1880);
#564=VERTEX_POINT('',#1882);
#565=VERTEX_POINT('',#1888);
#566=VERTEX_POINT('',#1890);
#567=VERTEX_POINT('',#1894);
#568=VERTEX_POINT('',#1896);
#569=VERTEX_POINT('',#1900);
#570=VERTEX_POINT('',#1904);
#571=VERTEX_POINT('',#1908);
#572=VERTEX_POINT('',#1912);
#573=VERTEX_POINT('',#1913);
#574=VERTEX_POINT('',#1918);
#575=VERTEX_POINT('',#1920);
#576=VERTEX_POINT('',#1924);
#577=VERTEX_POINT('',#1926);
#578=VERTEX_POINT('',#1932);
#579=VERTEX_POINT('',#1934);
#580=VERTEX_POINT('',#1938);
#581=VERTEX_POINT('',#1942);
#582=VERTEX_POINT('',#1946);
#583=VERTEX_POINT('',#1948);
#584=VERTEX_POINT('',#1952);
#585=VERTEX_POINT('',#1954);
#586=VERTEX_POINT('',#1960);
#587=VERTEX_POINT('',#1962);
#588=VERTEX_POINT('',#1966);
#589=VERTEX_POINT('',#1968);
#590=VERTEX_POINT('',#1972);
#591=VERTEX_POINT('',#1976);
#592=VERTEX_POINT('',#1981);
#593=VERTEX_POINT('',#1983);
#594=VERTEX_POINT('',#1987);
#595=VERTEX_POINT('',#1990);
#596=VERTEX_POINT('',#1996);
#597=VERTEX_POINT('',#2004);
#598=VERTEX_POINT('',#2008);
#599=VERTEX_POINT('',#2012);
#600=VERTEX_POINT('',#2016);
#601=EDGE_CURVE('',#488,#489,#437,.T.);
#602=EDGE_CURVE('',#489,#490,#195,.T.);
#603=EDGE_CURVE('',#490,#491,#438,.T.);
#604=EDGE_CURVE('',#491,#488,#196,.T.);
#605=EDGE_CURVE('',#489,#492,#197,.T.);
#606=EDGE_CURVE('',#492,#493,#198,.T.);
#607=EDGE_CURVE('',#493,#490,#199,.T.);
#608=EDGE_CURVE('',#494,#488,#200,.T.);
#609=EDGE_CURVE('',#495,#494,#439,.T.);
#610=EDGE_CURVE('',#496,#495,#201,.T.);
#611=EDGE_CURVE('',#497,#496,#440,.T.);
#612=EDGE_CURVE('',#497,#498,#202,.T.);
#613=EDGE_CURVE('',#499,#498,#441,.T.);
#614=EDGE_CURVE('',#500,#499,#203,.T.);
#615=EDGE_CURVE('',#500,#501,#204,.T.);
#616=EDGE_CURVE('',#502,#501,#442,.T.);
#617=EDGE_CURVE('',#502,#492,#205,.T.);
#618=EDGE_CURVE('',#503,#504,#443,.T.);
#619=EDGE_CURVE('',#504,#499,#206,.T.);
#620=EDGE_CURVE('',#498,#503,#207,.T.);
#621=EDGE_CURVE('',#505,#497,#208,.T.);
#622=EDGE_CURVE('',#505,#503,#209,.T.);
#623=EDGE_CURVE('',#506,#507,#444,.T.);
#624=EDGE_CURVE('',#506,#495,#210,.T.);
#625=EDGE_CURVE('',#494,#507,#211,.T.);
#626=EDGE_CURVE('',#507,#491,#212,.T.);
#627=EDGE_CURVE('',#505,#508,#445,.T.);
#628=EDGE_CURVE('',#496,#508,#213,.T.);
#629=EDGE_CURVE('',#509,#508,#214,.T.);
#630=EDGE_CURVE('',#509,#510,#215,.T.);
#631=EDGE_CURVE('',#505,#510,#216,.T.);
#632=EDGE_CURVE('',#511,#512,#217,.T.);
#633=EDGE_CURVE('',#513,#512,#446,.T.);
#634=EDGE_CURVE('',#513,#514,#218,.T.);
#635=EDGE_CURVE('',#515,#514,#447,.T.);
#636=EDGE_CURVE('',#515,#516,#219,.T.);
#637=EDGE_CURVE('',#517,#516,#448,.T.);
#638=EDGE_CURVE('',#517,#518,#220,.T.);
#639=EDGE_CURVE('',#511,#518,#449,.T.);
#640=EDGE_CURVE('',#506,#519,#221,.T.);
#641=EDGE_CURVE('',#519,#520,#450,.T.);
#642=EDGE_CURVE('',#520,#521,#222,.T.);
#643=EDGE_CURVE('',#521,#522,#451,.T.);
#644=EDGE_CURVE('',#522,#523,#223,.T.);
#645=EDGE_CURVE('',#523,#524,#452,.T.);
#646=EDGE_CURVE('',#524,#525,#224,.T.);
#647=EDGE_CURVE('',#525,#509,#453,.T.);
#648=EDGE_CURVE('',#526,#526,#454,.T.);
#649=EDGE_CURVE('',#527,#527,#455,.T.);
#650=EDGE_CURVE('',#526,#528,#225,.T.);
#651=EDGE_CURVE('',#528,#529,#456,.T.);
#652=EDGE_CURVE('',#529,#528,#457,.T.);
#653=EDGE_CURVE('',#529,#530,#226,.T.);
#654=EDGE_CURVE('',#530,#530,#458,.T.);
#655=EDGE_CURVE('',#527,#531,#227,.T.);
#656=EDGE_CURVE('',#531,#532,#459,.T.);
#657=EDGE_CURVE('',#532,#531,#460,.T.);
#658=EDGE_CURVE('',#532,#533,#228,.T.);
#659=EDGE_CURVE('',#533,#533,#461,.T.);
#660=EDGE_CURVE('',#534,#535,#229,.T.);
#661=EDGE_CURVE('',#536,#534,#230,.T.);
#662=EDGE_CURVE('',#536,#537,#231,.T.);
#663=EDGE_CURVE('',#535,#537,#232,.T.);
#664=EDGE_CURVE('',#538,#539,#233,.T.);
#665=EDGE_CURVE('',#538,#540,#234,.T.);
#666=EDGE_CURVE('',#540,#541,#235,.T.);
#667=EDGE_CURVE('',#539,#541,#236,.T.);
#668=EDGE_CURVE('',#535,#538,#462,.T.);
#669=EDGE_CURVE('',#537,#540,#463,.T.);
#670=EDGE_CURVE('',#542,#536,#237,.T.);
#671=EDGE_CURVE('',#543,#542,#464,.T.);
#672=EDGE_CURVE('',#541,#543,#238,.T.);
#673=EDGE_CURVE('',#539,#544,#239,.T.);
#674=EDGE_CURVE('',#544,#545,#240,.T.);
#675=EDGE_CURVE('',#545,#546,#465,.T.);
#676=EDGE_CURVE('',#546,#547,#241,.T.);
#677=EDGE_CURVE('',#547,#548,#242,.T.);
#678=EDGE_CURVE('',#548,#549,#243,.T.);
#679=EDGE_CURVE('',#549,#550,#466,.T.);
#680=EDGE_CURVE('',#550,#551,#244,.T.);
#681=EDGE_CURVE('',#551,#552,#245,.T.);
#682=EDGE_CURVE('',#552,#553,#246,.T.);
#683=EDGE_CURVE('',#553,#554,#467,.T.);
#684=EDGE_CURVE('',#554,#555,#247,.T.);
#685=EDGE_CURVE('',#555,#534,#248,.T.);
#686=EDGE_CURVE('',#556,#511,#249,.T.);
#687=EDGE_CURVE('',#556,#557,#250,.T.);
#688=EDGE_CURVE('',#512,#557,#251,.T.);
#689=EDGE_CURVE('',#520,#558,#252,.T.);
#690=EDGE_CURVE('',#559,#558,#253,.T.);
#691=EDGE_CURVE('',#521,#559,#254,.T.);
#692=EDGE_CURVE('',#519,#560,#255,.T.);
#693=EDGE_CURVE('',#558,#560,#468,.T.);
#694=EDGE_CURVE('',#560,#507,#256,.T.);
#695=EDGE_CURVE('',#546,#561,#257,.T.);
#696=EDGE_CURVE('',#562,#561,#258,.T.);
#697=EDGE_CURVE('',#547,#562,#259,.T.);
#698=EDGE_CURVE('',#563,#544,#260,.T.);
#699=EDGE_CURVE('',#564,#563,#261,.T.);
#700=EDGE_CURVE('',#545,#564,#262,.T.);
#701=EDGE_CURVE('',#561,#564,#469,.T.);
#702=EDGE_CURVE('',#565,#563,#263,.T.);
#703=EDGE_CURVE('',#566,#565,#470,.T.);
#704=EDGE_CURVE('',#562,#566,#264,.T.);
#705=EDGE_CURVE('',#565,#567,#265,.T.);
#706=EDGE_CURVE('',#568,#567,#471,.T.);
#707=EDGE_CURVE('',#566,#568,#266,.T.);
#708=EDGE_CURVE('',#543,#569,#267,.T.);
#709=EDGE_CURVE('',#567,#569,#268,.T.);
#710=EDGE_CURVE('',#525,#570,#269,.T.);
#711=EDGE_CURVE('',#510,#570,#472,.T.);
#712=EDGE_CURVE('',#524,#571,#270,.T.);
#713=EDGE_CURVE('',#570,#571,#271,.T.);
#714=EDGE_CURVE('',#572,#573,#272,.T.);
#715=EDGE_CURVE('',#516,#573,#273,.T.);
#716=EDGE_CURVE('',#572,#515,#274,.T.);
#717=EDGE_CURVE('',#574,#548,#275,.T.);
#718=EDGE_CURVE('',#574,#575,#276,.T.);
#719=EDGE_CURVE('',#549,#575,#277,.T.);
#720=EDGE_CURVE('',#550,#576,#278,.T.);
#721=EDGE_CURVE('',#576,#577,#279,.T.);
#722=EDGE_CURVE('',#551,#577,#280,.T.);
#723=EDGE_CURVE('',#575,#576,#473,.T.);
#724=EDGE_CURVE('',#578,#574,#281,.T.);
#725=EDGE_CURVE('',#579,#578,#474,.T.);
#726=EDGE_CURVE('',#577,#579,#282,.T.);
#727=EDGE_CURVE('',#523,#580,#283,.T.);
#728=EDGE_CURVE('',#571,#580,#475,.T.);
#729=EDGE_CURVE('',#522,#581,#284,.T.);
#730=EDGE_CURVE('',#580,#581,#285,.T.);
#731=EDGE_CURVE('',#554,#582,#286,.T.);
#732=EDGE_CURVE('',#583,#582,#287,.T.);
#733=EDGE_CURVE('',#555,#583,#288,.T.);
#734=EDGE_CURVE('',#584,#552,#289,.T.);
#735=EDGE_CURVE('',#585,#584,#290,.T.);
#736=EDGE_CURVE('',#553,#585,#291,.T.);
#737=EDGE_CURVE('',#582,#585,#476,.T.);
#738=EDGE_CURVE('',#586,#584,#292,.T.);
#739=EDGE_CURVE('',#587,#586,#477,.T.);
#740=EDGE_CURVE('',#583,#587,#293,.T.);
#741=EDGE_CURVE('',#587,#588,#294,.T.);
#742=EDGE_CURVE('',#589,#588,#295,.T.);
#743=EDGE_CURVE('',#542,#589,#296,.T.);
#744=EDGE_CURVE('',#586,#590,#297,.T.);
#745=EDGE_CURVE('',#588,#590,#478,.T.);
#746=EDGE_CURVE('',#591,#505,#298,.T.);
#747=EDGE_CURVE('',#581,#559,#479,.T.);
#748=EDGE_CURVE('',#507,#591,#299,.T.);
#749=EDGE_CURVE('',#569,#589,#480,.T.);
#750=EDGE_CURVE('',#590,#592,#300,.T.);
#751=EDGE_CURVE('',#592,#593,#481,.T.);
#752=EDGE_CURVE('',#593,#568,#301,.T.);
#753=EDGE_CURVE('',#591,#594,#482,.T.);
#754=EDGE_CURVE('',#594,#502,#302,.T.);
#755=EDGE_CURVE('',#501,#595,#303,.T.);
#756=EDGE_CURVE('',#591,#595,#483,.F.);
#757=EDGE_CURVE('',#493,#594,#304,.T.);
#758=EDGE_CURVE('',#596,#500,#305,.T.);
#759=EDGE_CURVE('',#595,#596,#306,.T.);
#760=EDGE_CURVE('',#504,#596,#307,.T.);
#761=EDGE_CURVE('',#514,#597,#308,.T.);
#762=EDGE_CURVE('',#597,#572,#484,.T.);
#763=EDGE_CURVE('',#573,#598,#485,.T.);
#764=EDGE_CURVE('',#598,#517,#309,.T.);
#765=EDGE_CURVE('',#518,#599,#310,.T.);
#766=EDGE_CURVE('',#599,#556,#486,.T.);
#767=EDGE_CURVE('',#557,#600,#487,.T.);
#768=EDGE_CURVE('',#600,#513,#311,.T.);
#769=EDGE_CURVE('',#578,#593,#312,.T.);
#770=EDGE_CURVE('',#579,#592,#313,.T.);
#771=EDGE_CURVE('',#598,#599,#314,.T.);
#772=EDGE_CURVE('',#600,#597,#315,.T.);
#773=ORIENTED_EDGE('',*,*,#601,.T.);
#774=ORIENTED_EDGE('',*,*,#602,.T.);
#775=ORIENTED_EDGE('',*,*,#603,.T.);
#776=ORIENTED_EDGE('',*,*,#604,.T.);
#777=ORIENTED_EDGE('',*,*,#602,.F.);
#778=ORIENTED_EDGE('',*,*,#605,.T.);
#779=ORIENTED_EDGE('',*,*,#606,.T.);
#780=ORIENTED_EDGE('',*,*,#607,.T.);
#781=ORIENTED_EDGE('',*,*,#601,.F.);
#782=ORIENTED_EDGE('',*,*,#608,.F.);
#783=ORIENTED_EDGE('',*,*,#609,.F.);
#784=ORIENTED_EDGE('',*,*,#610,.F.);
#785=ORIENTED_EDGE('',*,*,#611,.F.);
#786=ORIENTED_EDGE('',*,*,#612,.T.);
#787=ORIENTED_EDGE('',*,*,#613,.F.);
#788=ORIENTED_EDGE('',*,*,#614,.F.);
#789=ORIENTED_EDGE('',*,*,#615,.T.);
#790=ORIENTED_EDGE('',*,*,#616,.F.);
#791=ORIENTED_EDGE('',*,*,#617,.T.);
#792=ORIENTED_EDGE('',*,*,#605,.F.);
#793=ORIENTED_EDGE('',*,*,#618,.T.);
#794=ORIENTED_EDGE('',*,*,#619,.T.);
#795=ORIENTED_EDGE('',*,*,#613,.T.);
#796=ORIENTED_EDGE('',*,*,#620,.T.);
#797=ORIENTED_EDGE('',*,*,#620,.F.);
#798=ORIENTED_EDGE('',*,*,#612,.F.);
#799=ORIENTED_EDGE('',*,*,#621,.F.);
#800=ORIENTED_EDGE('',*,*,#622,.T.);
#801=ORIENTED_EDGE('',*,*,#623,.F.);
#802=ORIENTED_EDGE('',*,*,#624,.T.);
#803=ORIENTED_EDGE('',*,*,#609,.T.);
#804=ORIENTED_EDGE('',*,*,#625,.T.);
#805=ORIENTED_EDGE('',*,*,#604,.F.);
#806=ORIENTED_EDGE('',*,*,#626,.F.);
#807=ORIENTED_EDGE('',*,*,#625,.F.);
#808=ORIENTED_EDGE('',*,*,#608,.T.);
#809=ORIENTED_EDGE('',*,*,#627,.F.);
#810=ORIENTED_EDGE('',*,*,#621,.T.);
#811=ORIENTED_EDGE('',*,*,#611,.T.);
#812=ORIENTED_EDGE('',*,*,#628,.T.);
#813=ORIENTED_EDGE('',*,*,#627,.T.);
#814=ORIENTED_EDGE('',*,*,#629,.F.);
#815=ORIENTED_EDGE('',*,*,#630,.T.);
#816=ORIENTED_EDGE('',*,*,#631,.F.);
#817=ORIENTED_EDGE('',*,*,#632,.T.);
#818=ORIENTED_EDGE('',*,*,#633,.F.);
#819=ORIENTED_EDGE('',*,*,#634,.T.);
#820=ORIENTED_EDGE('',*,*,#635,.F.);
#821=ORIENTED_EDGE('',*,*,#636,.T.);
#822=ORIENTED_EDGE('',*,*,#637,.F.);
#823=ORIENTED_EDGE('',*,*,#638,.T.);
#824=ORIENTED_EDGE('',*,*,#639,.F.);
#825=ORIENTED_EDGE('',*,*,#624,.F.);
#826=ORIENTED_EDGE('',*,*,#640,.T.);
#827=ORIENTED_EDGE('',*,*,#641,.T.);
#828=ORIENTED_EDGE('',*,*,#642,.T.);
#829=ORIENTED_EDGE('',*,*,#643,.T.);
#830=ORIENTED_EDGE('',*,*,#644,.T.);
#831=ORIENTED_EDGE('',*,*,#645,.T.);
#832=ORIENTED_EDGE('',*,*,#646,.T.);
#833=ORIENTED_EDGE('',*,*,#647,.T.);
#834=ORIENTED_EDGE('',*,*,#629,.T.);
#835=ORIENTED_EDGE('',*,*,#628,.F.);
#836=ORIENTED_EDGE('',*,*,#610,.T.);
#837=ORIENTED_EDGE('',*,*,#648,.F.);
#838=ORIENTED_EDGE('',*,*,#649,.F.);
#839=ORIENTED_EDGE('',*,*,#648,.T.);
#840=ORIENTED_EDGE('',*,*,#650,.T.);
#841=ORIENTED_EDGE('',*,*,#651,.T.);
#842=ORIENTED_EDGE('',*,*,#652,.T.);
#843=ORIENTED_EDGE('',*,*,#650,.F.);
#844=ORIENTED_EDGE('',*,*,#651,.F.);
#845=ORIENTED_EDGE('',*,*,#652,.F.);
#846=ORIENTED_EDGE('',*,*,#653,.T.);
#847=ORIENTED_EDGE('',*,*,#654,.F.);
#848=ORIENTED_EDGE('',*,*,#653,.F.);
#849=ORIENTED_EDGE('',*,*,#649,.T.);
#850=ORIENTED_EDGE('',*,*,#655,.T.);
#851=ORIENTED_EDGE('',*,*,#656,.T.);
#852=ORIENTED_EDGE('',*,*,#657,.T.);
#853=ORIENTED_EDGE('',*,*,#655,.F.);
#854=ORIENTED_EDGE('',*,*,#656,.F.);
#855=ORIENTED_EDGE('',*,*,#657,.F.);
#856=ORIENTED_EDGE('',*,*,#658,.T.);
#857=ORIENTED_EDGE('',*,*,#659,.F.);
#858=ORIENTED_EDGE('',*,*,#658,.F.);
#859=ORIENTED_EDGE('',*,*,#660,.F.);
#860=ORIENTED_EDGE('',*,*,#661,.F.);
#861=ORIENTED_EDGE('',*,*,#662,.T.);
#862=ORIENTED_EDGE('',*,*,#663,.F.);
#863=ORIENTED_EDGE('',*,*,#664,.F.);
#864=ORIENTED_EDGE('',*,*,#665,.T.);
#865=ORIENTED_EDGE('',*,*,#666,.T.);
#866=ORIENTED_EDGE('',*,*,#667,.F.);
#867=ORIENTED_EDGE('',*,*,#668,.F.);
#868=ORIENTED_EDGE('',*,*,#663,.T.);
#869=ORIENTED_EDGE('',*,*,#669,.T.);
#870=ORIENTED_EDGE('',*,*,#665,.F.);
#871=ORIENTED_EDGE('',*,*,#669,.F.);
#872=ORIENTED_EDGE('',*,*,#662,.F.);
#873=ORIENTED_EDGE('',*,*,#670,.F.);
#874=ORIENTED_EDGE('',*,*,#671,.F.);
#875=ORIENTED_EDGE('',*,*,#672,.F.);
#876=ORIENTED_EDGE('',*,*,#666,.F.);
#877=ORIENTED_EDGE('',*,*,#660,.T.);
#878=ORIENTED_EDGE('',*,*,#668,.T.);
#879=ORIENTED_EDGE('',*,*,#664,.T.);
#880=ORIENTED_EDGE('',*,*,#673,.T.);
#881=ORIENTED_EDGE('',*,*,#674,.T.);
#882=ORIENTED_EDGE('',*,*,#675,.T.);
#883=ORIENTED_EDGE('',*,*,#676,.T.);
#884=ORIENTED_EDGE('',*,*,#677,.T.);
#885=ORIENTED_EDGE('',*,*,#678,.T.);
#886=ORIENTED_EDGE('',*,*,#679,.T.);
#887=ORIENTED_EDGE('',*,*,#680,.T.);
#888=ORIENTED_EDGE('',*,*,#681,.T.);
#889=ORIENTED_EDGE('',*,*,#682,.T.);
#890=ORIENTED_EDGE('',*,*,#683,.T.);
#891=ORIENTED_EDGE('',*,*,#684,.T.);
#892=ORIENTED_EDGE('',*,*,#685,.T.);
#893=ORIENTED_EDGE('',*,*,#632,.F.);
#894=ORIENTED_EDGE('',*,*,#686,.F.);
#895=ORIENTED_EDGE('',*,*,#687,.T.);
#896=ORIENTED_EDGE('',*,*,#688,.F.);
#897=ORIENTED_EDGE('',*,*,#689,.T.);
#898=ORIENTED_EDGE('',*,*,#690,.F.);
#899=ORIENTED_EDGE('',*,*,#691,.F.);
#900=ORIENTED_EDGE('',*,*,#642,.F.);
#901=ORIENTED_EDGE('',*,*,#692,.T.);
#902=ORIENTED_EDGE('',*,*,#693,.F.);
#903=ORIENTED_EDGE('',*,*,#689,.F.);
#904=ORIENTED_EDGE('',*,*,#641,.F.);
#905=ORIENTED_EDGE('',*,*,#623,.T.);
#906=ORIENTED_EDGE('',*,*,#694,.F.);
#907=ORIENTED_EDGE('',*,*,#692,.F.);
#908=ORIENTED_EDGE('',*,*,#640,.F.);
#909=ORIENTED_EDGE('',*,*,#676,.F.);
#910=ORIENTED_EDGE('',*,*,#695,.T.);
#911=ORIENTED_EDGE('',*,*,#696,.F.);
#912=ORIENTED_EDGE('',*,*,#697,.F.);
#913=ORIENTED_EDGE('',*,*,#674,.F.);
#914=ORIENTED_EDGE('',*,*,#698,.F.);
#915=ORIENTED_EDGE('',*,*,#699,.F.);
#916=ORIENTED_EDGE('',*,*,#700,.F.);
#917=ORIENTED_EDGE('',*,*,#675,.F.);
#918=ORIENTED_EDGE('',*,*,#700,.T.);
#919=ORIENTED_EDGE('',*,*,#701,.F.);
#920=ORIENTED_EDGE('',*,*,#695,.F.);
#921=ORIENTED_EDGE('',*,*,#701,.T.);
#922=ORIENTED_EDGE('',*,*,#699,.T.);
#923=ORIENTED_EDGE('',*,*,#702,.F.);
#924=ORIENTED_EDGE('',*,*,#703,.F.);
#925=ORIENTED_EDGE('',*,*,#704,.F.);
#926=ORIENTED_EDGE('',*,*,#696,.T.);
#927=ORIENTED_EDGE('',*,*,#703,.T.);
#928=ORIENTED_EDGE('',*,*,#705,.T.);
#929=ORIENTED_EDGE('',*,*,#706,.F.);
#930=ORIENTED_EDGE('',*,*,#707,.F.);
#931=ORIENTED_EDGE('',*,*,#672,.T.);
#932=ORIENTED_EDGE('',*,*,#708,.T.);
#933=ORIENTED_EDGE('',*,*,#709,.F.);
#934=ORIENTED_EDGE('',*,*,#705,.F.);
#935=ORIENTED_EDGE('',*,*,#702,.T.);
#936=ORIENTED_EDGE('',*,*,#698,.T.);
#937=ORIENTED_EDGE('',*,*,#673,.F.);
#938=ORIENTED_EDGE('',*,*,#667,.T.);
#939=ORIENTED_EDGE('',*,*,#710,.T.);
#940=ORIENTED_EDGE('',*,*,#711,.F.);
#941=ORIENTED_EDGE('',*,*,#630,.F.);
#942=ORIENTED_EDGE('',*,*,#647,.F.);
#943=ORIENTED_EDGE('',*,*,#646,.F.);
#944=ORIENTED_EDGE('',*,*,#712,.T.);
#945=ORIENTED_EDGE('',*,*,#713,.F.);
#946=ORIENTED_EDGE('',*,*,#710,.F.);
#947=ORIENTED_EDGE('',*,*,#714,.T.);
#948=ORIENTED_EDGE('',*,*,#715,.F.);
#949=ORIENTED_EDGE('',*,*,#636,.F.);
#950=ORIENTED_EDGE('',*,*,#716,.F.);
#951=ORIENTED_EDGE('',*,*,#678,.F.);
#952=ORIENTED_EDGE('',*,*,#717,.F.);
#953=ORIENTED_EDGE('',*,*,#718,.T.);
#954=ORIENTED_EDGE('',*,*,#719,.F.);
#955=ORIENTED_EDGE('',*,*,#680,.F.);
#956=ORIENTED_EDGE('',*,*,#720,.T.);
#957=ORIENTED_EDGE('',*,*,#721,.T.);
#958=ORIENTED_EDGE('',*,*,#722,.F.);
#959=ORIENTED_EDGE('',*,*,#679,.F.);
#960=ORIENTED_EDGE('',*,*,#719,.T.);
#961=ORIENTED_EDGE('',*,*,#723,.T.);
#962=ORIENTED_EDGE('',*,*,#720,.F.);
#963=ORIENTED_EDGE('',*,*,#723,.F.);
#964=ORIENTED_EDGE('',*,*,#718,.F.);
#965=ORIENTED_EDGE('',*,*,#724,.F.);
#966=ORIENTED_EDGE('',*,*,#725,.F.);
#967=ORIENTED_EDGE('',*,*,#726,.F.);
#968=ORIENTED_EDGE('',*,*,#721,.F.);
#969=ORIENTED_EDGE('',*,*,#727,.T.);
#970=ORIENTED_EDGE('',*,*,#728,.F.);
#971=ORIENTED_EDGE('',*,*,#712,.F.);
#972=ORIENTED_EDGE('',*,*,#645,.F.);
#973=ORIENTED_EDGE('',*,*,#644,.F.);
#974=ORIENTED_EDGE('',*,*,#729,.T.);
#975=ORIENTED_EDGE('',*,*,#730,.F.);
#976=ORIENTED_EDGE('',*,*,#727,.F.);
#977=ORIENTED_EDGE('',*,*,#684,.F.);
#978=ORIENTED_EDGE('',*,*,#731,.T.);
#979=ORIENTED_EDGE('',*,*,#732,.F.);
#980=ORIENTED_EDGE('',*,*,#733,.F.);
#981=ORIENTED_EDGE('',*,*,#682,.F.);
#982=ORIENTED_EDGE('',*,*,#734,.F.);
#983=ORIENTED_EDGE('',*,*,#735,.F.);
#984=ORIENTED_EDGE('',*,*,#736,.F.);
#985=ORIENTED_EDGE('',*,*,#683,.F.);
#986=ORIENTED_EDGE('',*,*,#736,.T.);
#987=ORIENTED_EDGE('',*,*,#737,.F.);
#988=ORIENTED_EDGE('',*,*,#731,.F.);
#989=ORIENTED_EDGE('',*,*,#737,.T.);
#990=ORIENTED_EDGE('',*,*,#735,.T.);
#991=ORIENTED_EDGE('',*,*,#738,.F.);
#992=ORIENTED_EDGE('',*,*,#739,.F.);
#993=ORIENTED_EDGE('',*,*,#740,.F.);
#994=ORIENTED_EDGE('',*,*,#732,.T.);
#995=ORIENTED_EDGE('',*,*,#661,.T.);
#996=ORIENTED_EDGE('',*,*,#685,.F.);
#997=ORIENTED_EDGE('',*,*,#733,.T.);
#998=ORIENTED_EDGE('',*,*,#740,.T.);
#999=ORIENTED_EDGE('',*,*,#741,.T.);
#1000=ORIENTED_EDGE('',*,*,#742,.F.);
#1001=ORIENTED_EDGE('',*,*,#743,.F.);
#1002=ORIENTED_EDGE('',*,*,#670,.T.);
#1003=ORIENTED_EDGE('',*,*,#739,.T.);
#1004=ORIENTED_EDGE('',*,*,#744,.T.);
#1005=ORIENTED_EDGE('',*,*,#745,.F.);
#1006=ORIENTED_EDGE('',*,*,#741,.F.);
#1007=ORIENTED_EDGE('',*,*,#746,.T.);
#1008=ORIENTED_EDGE('',*,*,#631,.T.);
#1009=ORIENTED_EDGE('',*,*,#711,.T.);
#1010=ORIENTED_EDGE('',*,*,#713,.T.);
#1011=ORIENTED_EDGE('',*,*,#728,.T.);
#1012=ORIENTED_EDGE('',*,*,#730,.T.);
#1013=ORIENTED_EDGE('',*,*,#747,.T.);
#1014=ORIENTED_EDGE('',*,*,#690,.T.);
#1015=ORIENTED_EDGE('',*,*,#693,.T.);
#1016=ORIENTED_EDGE('',*,*,#694,.T.);
#1017=ORIENTED_EDGE('',*,*,#748,.T.);
#1018=ORIENTED_EDGE('',*,*,#709,.T.);
#1019=ORIENTED_EDGE('',*,*,#749,.T.);
#1020=ORIENTED_EDGE('',*,*,#742,.T.);
#1021=ORIENTED_EDGE('',*,*,#745,.T.);
#1022=ORIENTED_EDGE('',*,*,#750,.T.);
#1023=ORIENTED_EDGE('',*,*,#751,.T.);
#1024=ORIENTED_EDGE('',*,*,#752,.T.);
#1025=ORIENTED_EDGE('',*,*,#706,.T.);
#1026=ORIENTED_EDGE('',*,*,#753,.T.);
#1027=ORIENTED_EDGE('',*,*,#754,.T.);
#1028=ORIENTED_EDGE('',*,*,#616,.T.);
#1029=ORIENTED_EDGE('',*,*,#755,.T.);
#1030=ORIENTED_EDGE('',*,*,#756,.F.);
#1031=ORIENTED_EDGE('',*,*,#754,.F.);
#1032=ORIENTED_EDGE('',*,*,#757,.F.);
#1033=ORIENTED_EDGE('',*,*,#606,.F.);
#1034=ORIENTED_EDGE('',*,*,#617,.F.);
#1035=ORIENTED_EDGE('',*,*,#755,.F.);
#1036=ORIENTED_EDGE('',*,*,#615,.F.);
#1037=ORIENTED_EDGE('',*,*,#758,.F.);
#1038=ORIENTED_EDGE('',*,*,#759,.F.);
#1039=ORIENTED_EDGE('',*,*,#618,.F.);
#1040=ORIENTED_EDGE('',*,*,#622,.F.);
#1041=ORIENTED_EDGE('',*,*,#746,.F.);
#1042=ORIENTED_EDGE('',*,*,#756,.T.);
#1043=ORIENTED_EDGE('',*,*,#759,.T.);
#1044=ORIENTED_EDGE('',*,*,#760,.F.);
#1045=ORIENTED_EDGE('',*,*,#619,.F.);
#1046=ORIENTED_EDGE('',*,*,#760,.T.);
#1047=ORIENTED_EDGE('',*,*,#758,.T.);
#1048=ORIENTED_EDGE('',*,*,#614,.T.);
#1049=ORIENTED_EDGE('',*,*,#603,.F.);
#1050=ORIENTED_EDGE('',*,*,#607,.F.);
#1051=ORIENTED_EDGE('',*,*,#757,.T.);
#1052=ORIENTED_EDGE('',*,*,#753,.F.);
#1053=ORIENTED_EDGE('',*,*,#748,.F.);
#1054=ORIENTED_EDGE('',*,*,#626,.T.);
#1055=ORIENTED_EDGE('',*,*,#635,.T.);
#1056=ORIENTED_EDGE('',*,*,#761,.T.);
#1057=ORIENTED_EDGE('',*,*,#762,.T.);
#1058=ORIENTED_EDGE('',*,*,#716,.T.);
#1059=ORIENTED_EDGE('',*,*,#637,.T.);
#1060=ORIENTED_EDGE('',*,*,#715,.T.);
#1061=ORIENTED_EDGE('',*,*,#763,.T.);
#1062=ORIENTED_EDGE('',*,*,#764,.T.);
#1063=ORIENTED_EDGE('',*,*,#639,.T.);
#1064=ORIENTED_EDGE('',*,*,#765,.T.);
#1065=ORIENTED_EDGE('',*,*,#766,.T.);
#1066=ORIENTED_EDGE('',*,*,#686,.T.);
#1067=ORIENTED_EDGE('',*,*,#633,.T.);
#1068=ORIENTED_EDGE('',*,*,#688,.T.);
#1069=ORIENTED_EDGE('',*,*,#767,.T.);
#1070=ORIENTED_EDGE('',*,*,#768,.T.);
#1071=ORIENTED_EDGE('',*,*,#704,.T.);
#1072=ORIENTED_EDGE('',*,*,#707,.T.);
#1073=ORIENTED_EDGE('',*,*,#752,.F.);
#1074=ORIENTED_EDGE('',*,*,#769,.F.);
#1075=ORIENTED_EDGE('',*,*,#724,.T.);
#1076=ORIENTED_EDGE('',*,*,#717,.T.);
#1077=ORIENTED_EDGE('',*,*,#677,.F.);
#1078=ORIENTED_EDGE('',*,*,#697,.T.);
#1079=ORIENTED_EDGE('',*,*,#725,.T.);
#1080=ORIENTED_EDGE('',*,*,#769,.T.);
#1081=ORIENTED_EDGE('',*,*,#751,.F.);
#1082=ORIENTED_EDGE('',*,*,#770,.F.);
#1083=ORIENTED_EDGE('',*,*,#726,.T.);
#1084=ORIENTED_EDGE('',*,*,#770,.T.);
#1085=ORIENTED_EDGE('',*,*,#750,.F.);
#1086=ORIENTED_EDGE('',*,*,#744,.F.);
#1087=ORIENTED_EDGE('',*,*,#738,.T.);
#1088=ORIENTED_EDGE('',*,*,#734,.T.);
#1089=ORIENTED_EDGE('',*,*,#681,.F.);
#1090=ORIENTED_EDGE('',*,*,#722,.T.);
#1091=ORIENTED_EDGE('',*,*,#671,.T.);
#1092=ORIENTED_EDGE('',*,*,#743,.T.);
#1093=ORIENTED_EDGE('',*,*,#749,.F.);
#1094=ORIENTED_EDGE('',*,*,#708,.F.);
#1095=ORIENTED_EDGE('',*,*,#643,.F.);
#1096=ORIENTED_EDGE('',*,*,#691,.T.);
#1097=ORIENTED_EDGE('',*,*,#747,.F.);
#1098=ORIENTED_EDGE('',*,*,#729,.F.);
#1099=ORIENTED_EDGE('',*,*,#764,.F.);
#1100=ORIENTED_EDGE('',*,*,#771,.T.);
#1101=ORIENTED_EDGE('',*,*,#765,.F.);
#1102=ORIENTED_EDGE('',*,*,#638,.F.);
#1103=ORIENTED_EDGE('',*,*,#761,.F.);
#1104=ORIENTED_EDGE('',*,*,#634,.F.);
#1105=ORIENTED_EDGE('',*,*,#768,.F.);
#1106=ORIENTED_EDGE('',*,*,#772,.T.);
#1107=ORIENTED_EDGE('',*,*,#687,.F.);
#1108=ORIENTED_EDGE('',*,*,#766,.F.);
#1109=ORIENTED_EDGE('',*,*,#771,.F.);
#1110=ORIENTED_EDGE('',*,*,#763,.F.);
#1111=ORIENTED_EDGE('',*,*,#714,.F.);
#1112=ORIENTED_EDGE('',*,*,#762,.F.);
#1113=ORIENTED_EDGE('',*,*,#772,.F.);
#1114=ORIENTED_EDGE('',*,*,#767,.F.);
#1115=ORIENTED_EDGE('',*,*,#659,.T.);
#1116=ORIENTED_EDGE('',*,*,#654,.T.);
#1117=CYLINDRICAL_SURFACE('',#1217,2.);
#1118=CYLINDRICAL_SURFACE('',#1226,2.);
#1119=CYLINDRICAL_SURFACE('',#1229,2.);
#1120=CYLINDRICAL_SURFACE('',#1232,2.);
#1121=CYLINDRICAL_SURFACE('',#1249,2.1);
#1122=CYLINDRICAL_SURFACE('',#1254,2.1);
#1123=CYLINDRICAL_SURFACE('',#1258,4.00000000000002);
#1124=CYLINDRICAL_SURFACE('',#1269,4.);
#1125=CYLINDRICAL_SURFACE('',#1274,4.00000000000002);
#1126=CYLINDRICAL_SURFACE('',#1278,1.99999999999999);
#1127=CYLINDRICAL_SURFACE('',#1281,3.99999999999999);
#1128=CYLINDRICAL_SURFACE('',#1287,4.00000000000002);
#1129=CYLINDRICAL_SURFACE('',#1291,4.);
#1130=CYLINDRICAL_SURFACE('',#1296,4.00000000000002);
#1131=CYLINDRICAL_SURFACE('',#1301,1.99999999999999);
#1132=CYLINDRICAL_SURFACE('',#1307,3.25);
#1133=CYLINDRICAL_SURFACE('',#1315,8.);
#1134=CYLINDRICAL_SURFACE('',#1317,8.);
#1135=CYLINDRICAL_SURFACE('',#1319,8.);
#1136=CYLINDRICAL_SURFACE('',#1321,8.);
#1137=CYLINDRICAL_SURFACE('',#1324,2.);
#1138=CYLINDRICAL_SURFACE('',#1326,2.);
#1139=CYLINDRICAL_SURFACE('',#1327,3.99999999999999);
#1140=ADVANCED_FACE('',(#63),#1117,.T.);
#1141=ADVANCED_FACE('',(#64),#25,.T.);
#1142=ADVANCED_FACE('',(#65),#26,.T.);
#1143=ADVANCED_FACE('',(#66),#1118,.T.);
#1144=ADVANCED_FACE('',(#67),#27,.T.);
#1145=ADVANCED_FACE('',(#68),#1119,.F.);
#1146=ADVANCED_FACE('',(#69),#28,.T.);
#1147=ADVANCED_FACE('',(#70),#1120,.F.);
#1148=ADVANCED_FACE('',(#71),#29,.T.);
#1149=ADVANCED_FACE('',(#72,#16,#17,#18),#30,.T.);
#1150=ADVANCED_FACE('',(#73),#14,.F.);
#1151=ADVANCED_FACE('',(#74),#1121,.F.);
#1152=ADVANCED_FACE('',(#75),#15,.F.);
#1153=ADVANCED_FACE('',(#76),#1122,.F.);
#1154=ADVANCED_FACE('',(#77),#31,.F.);
#1155=ADVANCED_FACE('',(#78),#32,.F.);
#1156=ADVANCED_FACE('',(#79),#1123,.T.);
#1157=ADVANCED_FACE('',(#80),#33,.F.);
#1158=ADVANCED_FACE('',(#81),#34,.T.);
#1159=ADVANCED_FACE('',(#82),#35,.T.);
#1160=ADVANCED_FACE('',(#83),#36,.T.);
#1161=ADVANCED_FACE('',(#84),#1124,.T.);
#1162=ADVANCED_FACE('',(#85),#37,.T.);
#1163=ADVANCED_FACE('',(#86),#38,.T.);
#1164=ADVANCED_FACE('',(#87),#39,.T.);
#1165=ADVANCED_FACE('',(#88),#1125,.T.);
#1166=ADVANCED_FACE('',(#89),#40,.T.);
#1167=ADVANCED_FACE('',(#90),#1126,.F.);
#1168=ADVANCED_FACE('',(#91),#41,.T.);
#1169=ADVANCED_FACE('',(#92),#1127,.T.);
#1170=ADVANCED_FACE('',(#93),#42,.T.);
#1171=ADVANCED_FACE('',(#94),#43,.T.);
#1172=ADVANCED_FACE('',(#95),#44,.F.);
#1173=ADVANCED_FACE('',(#96),#45,.F.);
#1174=ADVANCED_FACE('',(#97),#1128,.T.);
#1175=ADVANCED_FACE('',(#98),#46,.F.);
#1176=ADVANCED_FACE('',(#99),#1129,.T.);
#1177=ADVANCED_FACE('',(#100),#47,.T.);
#1178=ADVANCED_FACE('',(#101),#48,.T.);
#1179=ADVANCED_FACE('',(#102),#49,.T.);
#1180=ADVANCED_FACE('',(#103),#1130,.T.);
#1181=ADVANCED_FACE('',(#104),#50,.T.);
#1182=ADVANCED_FACE('',(#105),#51,.T.);
#1183=ADVANCED_FACE('',(#106),#1131,.F.);
#1184=ADVANCED_FACE('',(#107,#19),#52,.T.);
#1185=ADVANCED_FACE('',(#108),#1132,.F.);
#1186=ADVANCED_FACE('',(#109),#53,.F.);
#1187=ADVANCED_FACE('',(#110),#54,.F.);
#1188=ADVANCED_FACE('',(#111),#55,.T.);
#1189=ADVANCED_FACE('',(#112),#56,.T.);
#1190=ADVANCED_FACE('',(#113),#57,.T.);
#1191=ADVANCED_FACE('',(#114),#1133,.T.);
#1192=ADVANCED_FACE('',(#115),#1134,.T.);
#1193=ADVANCED_FACE('',(#116),#1135,.T.);
#1194=ADVANCED_FACE('',(#117),#1136,.T.);
#1195=ADVANCED_FACE('',(#118),#58,.T.);
#1196=ADVANCED_FACE('',(#119),#1137,.F.);
#1197=ADVANCED_FACE('',(#120),#59,.T.);
#1198=ADVANCED_FACE('',(#121),#1138,.F.);
#1199=ADVANCED_FACE('',(#122),#1139,.T.);
#1200=ADVANCED_FACE('',(#123),#60,.T.);
#1201=ADVANCED_FACE('',(#124),#61,.T.);
#1202=ADVANCED_FACE('',(#125,#20,#21),#62,.F.);
#1203=CLOSED_SHELL('',(#1140,#1141,#1142,#1143,#1144,#1145,#1146,#1147,
#1148,#1149,#1150,#1151,#1152,#1153,#1154,#1155,#1156,#1157,#1158,#1159,
#1160,#1161,#1162,#1163,#1164,#1165,#1166,#1167,#1168,#1169,#1170,#1171,
#1172,#1173,#1174,#1175,#1176,#1177,#1178,#1179,#1180,#1181,#1182,#1183,
#1184,#1185,#1186,#1187,#1188,#1189,#1190,#1191,#1192,#1193,#1194,#1195,
#1196,#1197,#1198,#1199,#1200,#1201,#1202));
#1204=DERIVED_UNIT_ELEMENT(#1206,1.);
#1205=DERIVED_UNIT_ELEMENT(#2036,3.);
#1206=(
MASS_UNIT()
NAMED_UNIT(*)
SI_UNIT(.KILO.,.GRAM.)
);
#1207=DERIVED_UNIT((#1204,#1205));
#1208=MEASURE_REPRESENTATION_ITEM('density measure',
POSITIVE_RATIO_MEASURE(7850.),#1207);
#1209=PROPERTY_DEFINITION_REPRESENTATION(#1214,#1211);
#1210=PROPERTY_DEFINITION_REPRESENTATION(#1215,#1212);
#1211=REPRESENTATION('material name',(#1213),#2033);
#1212=REPRESENTATION('density',(#1208),#2033);
#1213=DESCRIPTIVE_REPRESENTATION_ITEM('Steel','Steel');
#1214=PROPERTY_DEFINITION('material property','material name',#2043);
#1215=PROPERTY_DEFINITION('material property','density of part',#2043);
#1216=AXIS2_PLACEMENT_3D('placement',#1682,#1331,#1332);
#1217=AXIS2_PLACEMENT_3D('',#1683,#1333,#1334);
#1218=AXIS2_PLACEMENT_3D('',#1686,#1335,#1336);
#1219=AXIS2_PLACEMENT_3D('',#1690,#1338,#1339);
#1220=AXIS2_PLACEMENT_3D('',#1692,#1341,#1342);
#1221=AXIS2_PLACEMENT_3D('',#1698,#1346,#1347);
#1222=AXIS2_PLACEMENT_3D('',#1702,#1349,#1350);
#1223=AXIS2_PLACEMENT_3D('',#1706,#1352,#1353);
#1224=AXIS2_PLACEMENT_3D('',#1710,#1355,#1356);
#1225=AXIS2_PLACEMENT_3D('',#1716,#1359,#1360);
#1226=AXIS2_PLACEMENT_3D('',#1718,#1362,#1363);
#1227=AXIS2_PLACEMENT_3D('',#1721,#1364,#1365);
#1228=AXIS2_PLACEMENT_3D('',#1724,#1368,#1369);
#1229=AXIS2_PLACEMENT_3D('',#1728,#1372,#1373);
#1230=AXIS2_PLACEMENT_3D('',#1731,#1374,#1375);
#1231=AXIS2_PLACEMENT_3D('',#1734,#1378,#1379);
#1232=AXIS2_PLACEMENT_3D('',#1736,#1381,#1382);
#1233=AXIS2_PLACEMENT_3D('',#1738,#1383,#1384);
#1234=AXIS2_PLACEMENT_3D('',#1740,#1386,#1387);
#1235=AXIS2_PLACEMENT_3D('',#1746,#1391,#1392);
#1236=AXIS2_PLACEMENT_3D('',#1751,#1394,#1395);
#1237=AXIS2_PLACEMENT_3D('',#1755,#1397,#1398);
#1238=AXIS2_PLACEMENT_3D('',#1759,#1400,#1401);
#1239=AXIS2_PLACEMENT_3D('',#1762,#1403,#1404);
#1240=AXIS2_PLACEMENT_3D('',#1766,#1406,#1407);
#1241=AXIS2_PLACEMENT_3D('',#1770,#1409,#1410);
#1242=AXIS2_PLACEMENT_3D('',#1774,#1412,#1413);
#1243=AXIS2_PLACEMENT_3D('',#1777,#1415,#1416);
#1244=AXIS2_PLACEMENT_3D('',#1779,#1417,#1418);
#1245=AXIS2_PLACEMENT_3D('',#1781,#1419,#1420);
#1246=AXIS2_PLACEMENT_3D('',#1782,#1421,#1422);
#1247=AXIS2_PLACEMENT_3D('',#1786,#1424,#1425);
#1248=AXIS2_PLACEMENT_3D('',#1787,#1426,#1427);
#1249=AXIS2_PLACEMENT_3D('',#1788,#1428,#1429);
#1250=AXIS2_PLACEMENT_3D('',#1791,#1431,#1432);
#1251=AXIS2_PLACEMENT_3D('',#1792,#1433,#1434);
#1252=AXIS2_PLACEMENT_3D('',#1796,#1436,#1437);
#1253=AXIS2_PLACEMENT_3D('',#1797,#1438,#1439);
#1254=AXIS2_PLACEMENT_3D('',#1798,#1440,#1441);
#1255=AXIS2_PLACEMENT_3D('',#1801,#1443,#1444);
#1256=AXIS2_PLACEMENT_3D('',#1802,#1445,#1446);
#1257=AXIS2_PLACEMENT_3D('',#1811,#1451,#1452);
#1258=AXIS2_PLACEMENT_3D('',#1820,#1457,#1458);
#1259=AXIS2_PLACEMENT_3D('',#1821,#1459,#1460);
#1260=AXIS2_PLACEMENT_3D('',#1822,#1461,#1462);
#1261=AXIS2_PLACEMENT_3D('',#1823,#1463,#1464);
#1262=AXIS2_PLACEMENT_3D('',#1827,#1466,#1467);
#1263=AXIS2_PLACEMENT_3D('',#1829,#1469,#1470);
#1264=AXIS2_PLACEMENT_3D('',#1835,#1473,#1474);
#1265=AXIS2_PLACEMENT_3D('',#1843,#1478,#1479);
#1266=AXIS2_PLACEMENT_3D('',#1851,#1483,#1484);
#1267=AXIS2_PLACEMENT_3D('',#1855,#1487,#1488);
#1268=AXIS2_PLACEMENT_3D('',#1861,#1492,#1493);
#1269=AXIS2_PLACEMENT_3D('',#1867,#1497,#1498);
#1270=AXIS2_PLACEMENT_3D('',#1870,#1500,#1501);
#1271=AXIS2_PLACEMENT_3D('',#1871,#1502,#1503);
#1272=AXIS2_PLACEMENT_3D('',#1873,#1505,#1506);
#1273=AXIS2_PLACEMENT_3D('',#1879,#1510,#1511);
#1274=AXIS2_PLACEMENT_3D('',#1885,#1515,#1516);
#1275=AXIS2_PLACEMENT_3D('',#1886,#1517,#1518);
#1276=AXIS2_PLACEMENT_3D('',#1887,#1519,#1520);
#1277=AXIS2_PLACEMENT_3D('',#1891,#1522,#1523);
#1278=AXIS2_PLACEMENT_3D('',#1893,#1525,#1526);
#1279=AXIS2_PLACEMENT_3D('',#1897,#1528,#1529);
#1280=AXIS2_PLACEMENT_3D('',#1899,#1531,#1532);
#1281=AXIS2_PLACEMENT_3D('',#1903,#1535,#1536);
#1282=AXIS2_PLACEMENT_3D('',#1906,#1538,#1539);
#1283=AXIS2_PLACEMENT_3D('',#1907,#1540,#1541);
#1284=AXIS2_PLACEMENT_3D('',#1911,#1544,#1545);
#1285=AXIS2_PLACEMENT_3D('',#1917,#1549,#1550);
#1286=AXIS2_PLACEMENT_3D('',#1923,#1554,#1555);
#1287=AXIS2_PLACEMENT_3D('',#1929,#1559,#1560);
#1288=AXIS2_PLACEMENT_3D('',#1930,#1561,#1562);
#1289=AXIS2_PLACEMENT_3D('',#1931,#1563,#1564);
#1290=AXIS2_PLACEMENT_3D('',#1935,#1566,#1567);
#1291=AXIS2_PLACEMENT_3D('',#1937,#1569,#1570);
#1292=AXIS2_PLACEMENT_3D('',#1940,#1572,#1573);
#1293=AXIS2_PLACEMENT_3D('',#1941,#1574,#1575);
#1294=AXIS2_PLACEMENT_3D('',#1945,#1578,#1579);
#1295=AXIS2_PLACEMENT_3D('',#1951,#1583,#1584);
#1296=AXIS2_PLACEMENT_3D('',#1957,#1588,#1589);
#1297=AXIS2_PLACEMENT_3D('',#1958,#1590,#1591);
#1298=AXIS2_PLACEMENT_3D('',#1959,#1592,#1593);
#1299=AXIS2_PLACEMENT_3D('',#1963,#1595,#1596);
#1300=AXIS2_PLACEMENT_3D('',#1965,#1598,#1599);
#1301=AXIS2_PLACEMENT_3D('',#1971,#1603,#1604);
#1302=AXIS2_PLACEMENT_3D('',#1974,#1606,#1607);
#1303=AXIS2_PLACEMENT_3D('',#1975,#1608,#1609);
#1304=AXIS2_PLACEMENT_3D('',#1978,#1611,#1612);
#1305=AXIS2_PLACEMENT_3D('',#1980,#1614,#1615);
#1306=AXIS2_PLACEMENT_3D('',#1984,#1617,#1618);
#1307=AXIS2_PLACEMENT_3D('',#1986,#1620,#1621);
#1308=AXIS2_PLACEMENT_3D('',#1988,#1622,#1623);
#1309=AXIS2_PLACEMENT_3D('',#1992,#1626,#1627);
#1310=AXIS2_PLACEMENT_3D('',#1993,#1628,#1629);
#1311=AXIS2_PLACEMENT_3D('',#1995,#1631,#1632);
#1312=AXIS2_PLACEMENT_3D('',#1999,#1635,#1636);
#1313=AXIS2_PLACEMENT_3D('',#2001,#1638,#1639);
#1314=AXIS2_PLACEMENT_3D('',#2002,#1640,#1641);
#1315=AXIS2_PLACEMENT_3D('',#2003,#1642,#1643);
#1316=AXIS2_PLACEMENT_3D('',#2006,#1645,#1646);
#1317=AXIS2_PLACEMENT_3D('',#2007,#1647,#1648);
#1318=AXIS2_PLACEMENT_3D('',#2009,#1649,#1650);
#1319=AXIS2_PLACEMENT_3D('',#2011,#1652,#1653);
#1320=AXIS2_PLACEMENT_3D('',#2014,#1655,#1656);
#1321=AXIS2_PLACEMENT_3D('',#2015,#1657,#1658);
#1322=AXIS2_PLACEMENT_3D('',#2017,#1659,#1660);
#1323=AXIS2_PLACEMENT_3D('',#2019,#1662,#1663);
#1324=AXIS2_PLACEMENT_3D('',#2021,#1665,#1666);
#1325=AXIS2_PLACEMENT_3D('',#2023,#1668,#1669);
#1326=AXIS2_PLACEMENT_3D('',#2024,#1670,#1671);
#1327=AXIS2_PLACEMENT_3D('',#2025,#1672,#1673);
#1328=AXIS2_PLACEMENT_3D('',#2026,#1674,#1675);
#1329=AXIS2_PLACEMENT_3D('',#2028,#1677,#1678);
#1330=AXIS2_PLACEMENT_3D('',#2030,#1680,#1681);
#1331=DIRECTION('axis',(0.,0.,1.));
#1332=DIRECTION('refdir',(1.,0.,0.));
#1333=DIRECTION('center_axis',(0.,-1.,0.));
#1334=DIRECTION('ref_axis',(-0.707106781186548,0.,0.707106781186548));
#1335=DIRECTION('center_axis',(0.,1.,0.));
#1336=DIRECTION('ref_axis',(-0.707106781186548,0.,0.707106781186548));
#1337=DIRECTION('',(0.,1.,0.));
#1338=DIRECTION('center_axis',(0.,-1.,0.));
#1339=DIRECTION('ref_axis',(-0.707106781186548,0.,0.707106781186548));
#1340=DIRECTION('',(0.,-1.,0.));
#1341=DIRECTION('center_axis',(0.,0.,1.));
#1342=DIRECTION('ref_axis',(1.,0.,0.));
#1343=DIRECTION('',(1.,0.,0.));
#1344=DIRECTION('',(0.,1.,0.));
#1345=DIRECTION('',(-1.,0.,0.));
#1346=DIRECTION('center_axis',(0.,-1.,0.));
#1347=DIRECTION('ref_axis',(1.,0.,0.));
#1348=DIRECTION('',(0.,0.,1.));
#1349=DIRECTION('center_axis',(0.,-1.,0.));
#1350=DIRECTION('ref_axis',(0.707106781186548,0.,-0.707106781186547));
#1351=DIRECTION('',(-1.,0.,0.));
#1352=DIRECTION('center_axis',(0.,-1.,0.));
#1353=DIRECTION('ref_axis',(-0.707106781186548,0.,-0.707106781186548));
#1354=DIRECTION('',(0.,0.,1.));
#1355=DIRECTION('center_axis',(0.,1.,0.));
#1356=DIRECTION('ref_axis',(0.707106781186547,0.,0.707106781186548));
#1357=DIRECTION('',(1.,0.,0.));
#1358=DIRECTION('',(6.93889390390723E-17,0.,-1.));
#1359=DIRECTION('center_axis',(0.,-1.,0.));
#1360=DIRECTION('ref_axis',(-0.707106781186548,0.,-0.707106781186547));
#1361=DIRECTION('',(0.,0.,1.));
#1362=DIRECTION('center_axis',(0.,1.,0.));
#1363=DIRECTION('ref_axis',(0.707106781186547,0.,0.707106781186548));
#1364=DIRECTION('center_axis',(0.,-1.,0.));
#1365=DIRECTION('ref_axis',(0.707106781186547,0.,0.707106781186548));
#1366=DIRECTION('',(0.,-1.,0.));
#1367=DIRECTION('',(0.,1.,0.));
#1368=DIRECTION('center_axis',(1.,0.,0.));
#1369=DIRECTION('ref_axis',(0.,1.,0.));
#1370=DIRECTION('',(0.,-1.,0.));
#1371=DIRECTION('',(0.,0.,1.));
#1372=DIRECTION('center_axis',(0.,1.,0.));
#1373=DIRECTION('ref_axis',(0.707106781186548,0.,-0.707106781186547));
#1374=DIRECTION('center_axis',(8.30073289439369E-16,-1.,0.));
#1375=DIRECTION('ref_axis',(0.707106781186548,0.,-0.707106781186547));
#1376=DIRECTION('',(0.,-1.,0.));
#1377=DIRECTION('',(0.,1.,0.));
#1378=DIRECTION('center_axis',(-1.,0.,0.));
#1379=DIRECTION('ref_axis',(0.,-1.,0.));
#1380=DIRECTION('',(0.,0.,1.));
#1381=DIRECTION('center_axis',(0.,-1.,0.));
#1382=DIRECTION('ref_axis',(-0.707106781186548,0.,-0.707106781186548));
#1383=DIRECTION('center_axis',(8.30073289439369E-16,-1.,0.));
#1384=DIRECTION('ref_axis',(-0.707106781186548,0.,-0.707106781186548));
#1385=DIRECTION('',(0.,1.,0.));
#1386=DIRECTION('center_axis',(8.30073289439369E-16,-1.,0.));
#1387=DIRECTION('ref_axis',(1.,8.30073289439369E-16,0.));
#1388=DIRECTION('',(-1.,-8.30073289439369E-16,0.));
#1389=DIRECTION('',(0.,0.,1.));
#1390=DIRECTION('',(1.,8.30073289439369E-16,0.));
#1391=DIRECTION('center_axis',(0.,0.,1.));
#1392=DIRECTION('ref_axis',(1.,0.,0.));
#1393=DIRECTION('',(0.,-1.,0.));
#1394=DIRECTION('center_axis',(0.,0.,-1.));
#1395=DIRECTION('ref_axis',(-0.707106781186547,-0.707106781186548,0.));
#1396=DIRECTION('',(1.,0.,0.));
#1397=DIRECTION('center_axis',(0.,0.,-1.));
#1398=DIRECTION('ref_axis',(0.707106781186547,-0.707106781186548,0.));
#1399=DIRECTION('',(0.,1.,0.));
#1400=DIRECTION('center_axis',(0.,0.,-1.));
#1401=DIRECTION('ref_axis',(0.707106781186547,0.707106781186548,0.));
#1402=DIRECTION('',(-1.,0.,0.));
#1403=DIRECTION('center_axis',(0.,0.,-1.));
#1404=DIRECTION('ref_axis',(-0.707106781186547,0.707106781186548,0.));
#1405=DIRECTION('',(-1.,-8.30073289439369E-16,0.));
#1406=DIRECTION('center_axis',(0.,0.,-1.));
#1407=DIRECTION('ref_axis',(-1.,0.,0.));
#1408=DIRECTION('',(3.77626879124203E-17,1.,0.));
#1409=DIRECTION('center_axis',(0.,0.,-1.));
#1410=DIRECTION('ref_axis',(0.,1.,0.));
#1411=DIRECTION('',(1.,8.30073289439369E-16,0.));
#1412=DIRECTION('center_axis',(0.,0.,-1.));
#1413=DIRECTION('ref_axis',(1.,0.,0.));
#1414=DIRECTION('',(-3.77626879124203E-17,-1.,0.));
#1415=DIRECTION('center_axis',(0.,0.,-1.));
#1416=DIRECTION('ref_axis',(0.,-1.,0.));
#1417=DIRECTION('center_axis',(0.,0.,1.));
#1418=DIRECTION('ref_axis',(-1.,0.,0.));
#1419=DIRECTION('center_axis',(0.,0.,1.));
#1420=DIRECTION('ref_axis',(-1.,0.,0.));
#1421=DIRECTION('center_axis',(0.,0.,1.));
#1422=DIRECTION('ref_axis',(-1.,0.,0.));
#1423=DIRECTION('',(-0.707106781186547,-8.65956056235493E-17,-0.707106781186548));
#1424=DIRECTION('center_axis',(0.,0.,-1.));
#1425=DIRECTION('ref_axis',(-1.,0.,0.));
#1426=DIRECTION('center_axis',(0.,0.,-1.));
#1427=DIRECTION('ref_axis',(-1.,0.,0.));
#1428=DIRECTION('center_axis',(0.,0.,-1.));
#1429=DIRECTION('ref_axis',(1.,0.,0.));
#1430=DIRECTION('',(0.,0.,-1.));
#1431=DIRECTION('center_axis',(0.,0.,1.));
#1432=DIRECTION('ref_axis',(1.,0.,0.));
#1433=DIRECTION('center_axis',(0.,0.,1.));
#1434=DIRECTION('ref_axis',(-1.,0.,0.));
#1435=DIRECTION('',(-0.707106781186547,-8.65956056235493E-17,-0.707106781186548));
#1436=DIRECTION('center_axis',(0.,0.,-1.));
#1437=DIRECTION('ref_axis',(-1.,0.,0.));
#1438=DIRECTION('center_axis',(0.,0.,-1.));
#1439=DIRECTION('ref_axis',(-1.,0.,0.));
#1440=DIRECTION('center_axis',(0.,0.,-1.));
#1441=DIRECTION('ref_axis',(1.,0.,0.));
#1442=DIRECTION('',(0.,0.,-1.));
#1443=DIRECTION('center_axis',(0.,0.,1.));
#1444=DIRECTION('ref_axis',(1.,0.,0.));
#1445=DIRECTION('center_axis',(0.,-1.,0.));
#1446=DIRECTION('ref_axis',(1.,0.,0.));
#1447=DIRECTION('',(1.,0.,0.));
#1448=DIRECTION('',(0.,0.,-1.));
#1449=DIRECTION('',(1.,0.,0.));
#1450=DIRECTION('',(0.,0.,1.));
#1451=DIRECTION('center_axis',(-1.,-2.77555756156289E-16,0.));
#1452=DIRECTION('ref_axis',(2.77555756156289E-16,-1.,0.));
#1453=DIRECTION('',(2.77555756156289E-16,-1.,0.));
#1454=DIRECTION('',(0.,0.,1.));
#1455=DIRECTION('',(2.77555756156289E-16,-1.,0.));
#1456=DIRECTION('',(0.,0.,1.));
#1457=DIRECTION('center_axis',(0.,0.,-1.));
#1458=DIRECTION('ref_axis',(5.55111512312575E-15,1.,0.));
#1459=DIRECTION('center_axis',(0.,0.,-1.));
#1460=DIRECTION('ref_axis',(5.55111512312575E-15,1.,0.));
#1461=DIRECTION('center_axis',(0.,0.,-1.));
#1462=DIRECTION('ref_axis',(5.55111512312575E-15,1.,0.));
#1463=DIRECTION('center_axis',(0.,0.,-1.));
#1464=DIRECTION('ref_axis',(-1.,0.,0.));
#1465=DIRECTION('',(0.,1.,0.));
#1466=DIRECTION('center_axis',(0.,0.,-1.));
#1467=DIRECTION('ref_axis',(-1.,0.,0.));
#1468=DIRECTION('',(-1.,0.,0.));
#1469=DIRECTION('center_axis',(0.,0.,1.));
#1470=DIRECTION('ref_axis',(1.,0.,0.));
#1471=DIRECTION('',(1.,0.,0.));
#1472=DIRECTION('',(2.77555756156289E-16,1.,0.));
#1473=DIRECTION('center_axis',(0.,0.,-1.));
#1474=DIRECTION('ref_axis',(-5.55111512312575E-15,1.,0.));
#1475=DIRECTION('',(1.,0.,0.));
#1476=DIRECTION('',(0.,1.,0.));
#1477=DIRECTION('',(-1.,0.,0.));
#1478=DIRECTION('center_axis',(0.,0.,-1.));
#1479=DIRECTION('ref_axis',(-5.55111512312575E-15,-1.,0.));
#1480=DIRECTION('',(-2.77555756156289E-16,1.,0.));
#1481=DIRECTION('',(-1.,0.,0.));
#1482=DIRECTION('',(-2.77555756156289E-16,-1.,0.));
#1483=DIRECTION('center_axis',(0.,0.,-1.));
#1484=DIRECTION('ref_axis',(5.55111512312575E-15,-1.,0.));
#1485=DIRECTION('',(-1.,0.,0.));
#1486=DIRECTION('',(0.,-1.,0.));
#1487=DIRECTION('center_axis',(-1.,0.,0.));
#1488=DIRECTION('ref_axis',(0.,-1.,0.));
#1489=DIRECTION('',(0.,0.,1.));
#1490=DIRECTION('',(0.,-1.,0.));
#1491=DIRECTION('',(0.,0.,-1.));
#1492=DIRECTION('center_axis',(-1.,3.77626879124203E-17,0.));
#1493=DIRECTION('ref_axis',(-3.77626879124203E-17,-1.,0.));
#1494=DIRECTION('',(0.,0.,1.));
#1495=DIRECTION('',(-3.77626879124203E-17,-1.,0.));
#1496=DIRECTION('',(0.,0.,1.));
#1497=DIRECTION('center_axis',(0.,0.,1.));
#1498=DIRECTION('ref_axis',(-1.,0.,0.));
#1499=DIRECTION('',(0.,0.,1.));
#1500=DIRECTION('center_axis',(0.,0.,1.));
#1501=DIRECTION('ref_axis',(-1.,0.,0.));
#1502=DIRECTION('center_axis',(8.30073289439369E-16,-1.,0.));
#1503=DIRECTION('ref_axis',(1.,8.30073289439369E-16,0.));
#1504=DIRECTION('',(1.,8.30073289439369E-16,0.));
#1505=DIRECTION('center_axis',(0.,1.,0.));
#1506=DIRECTION('ref_axis',(-1.,0.,0.));
#1507=DIRECTION('',(0.,0.,1.));
#1508=DIRECTION('',(-1.,0.,0.));
#1509=DIRECTION('',(0.,0.,1.));
#1510=DIRECTION('center_axis',(-1.,2.77555756156289E-16,0.));
#1511=DIRECTION('ref_axis',(-2.77555756156289E-16,-1.,0.));
#1512=DIRECTION('',(0.,0.,-1.));
#1513=DIRECTION('',(-2.77555756156289E-16,-1.,0.));
#1514=DIRECTION('',(0.,0.,1.));
#1515=DIRECTION('center_axis',(0.,0.,1.));
#1516=DIRECTION('ref_axis',(-5.55111512312575E-15,1.,0.));
#1517=DIRECTION('center_axis',(0.,0.,1.));
#1518=DIRECTION('ref_axis',(-5.55111512312575E-15,1.,0.));
#1519=DIRECTION('center_axis',(0.,0.,1.));
#1520=DIRECTION('ref_axis',(1.,0.,0.));
#1521=DIRECTION('',(-1.,0.,0.));
#1522=DIRECTION('center_axis',(0.,0.,-1.));
#1523=DIRECTION('ref_axis',(0.,-1.,0.));
#1524=DIRECTION('',(0.,-1.,0.));
#1525=DIRECTION('center_axis',(0.,0.,1.));
#1526=DIRECTION('ref_axis',(0.,-1.,0.));
#1527=DIRECTION('',(0.,0.,1.));
#1528=DIRECTION('center_axis',(0.,0.,-1.));
#1529=DIRECTION('ref_axis',(0.,-1.,0.));
#1530=DIRECTION('',(0.,0.,1.));
#1531=DIRECTION('center_axis',(0.,1.,0.));
#1532=DIRECTION('ref_axis',(-1.,0.,0.));
#1533=DIRECTION('',(0.,0.,1.));
#1534=DIRECTION('',(-1.,0.,0.));
#1535=DIRECTION('center_axis',(0.,0.,1.));
#1536=DIRECTION('ref_axis',(0.,-1.,0.));
#1537=DIRECTION('',(0.,0.,1.));
#1538=DIRECTION('center_axis',(0.,0.,1.));
#1539=DIRECTION('ref_axis',(0.,-1.,0.));
#1540=DIRECTION('center_axis',(1.,-3.77626879124203E-17,0.));
#1541=DIRECTION('ref_axis',(3.77626879124203E-17,1.,0.));
#1542=DIRECTION('',(0.,0.,1.));
#1543=DIRECTION('',(3.77626879124203E-17,1.,0.));
#1544=DIRECTION('center_axis',(1.,0.,0.));
#1545=DIRECTION('ref_axis',(0.,1.,0.));
#1546=DIRECTION('',(0.,1.,0.));
#1547=DIRECTION('',(0.,0.,-1.));
#1548=DIRECTION('',(0.,0.,1.));
#1549=DIRECTION('center_axis',(0.,1.,0.));
#1550=DIRECTION('ref_axis',(-1.,0.,0.));
#1551=DIRECTION('',(0.,0.,-1.));
#1552=DIRECTION('',(-1.,0.,0.));
#1553=DIRECTION('',(0.,0.,1.));
#1554=DIRECTION('center_axis',(1.,2.77555756156289E-16,0.));
#1555=DIRECTION('ref_axis',(-2.77555756156289E-16,1.,0.));
#1556=DIRECTION('',(0.,0.,1.));
#1557=DIRECTION('',(-2.77555756156289E-16,1.,0.));
#1558=DIRECTION('',(0.,0.,1.));
#1559=DIRECTION('center_axis',(0.,0.,-1.));
#1560=DIRECTION('ref_axis',(-5.55111512312575E-15,-1.,0.));
#1561=DIRECTION('center_axis',(0.,0.,-1.));
#1562=DIRECTION('ref_axis',(-5.55111512312575E-15,-1.,0.));
#1563=DIRECTION('center_axis',(0.,0.,-1.));
#1564=DIRECTION('ref_axis',(1.,0.,0.));
#1565=DIRECTION('',(0.,-1.,0.));
#1566=DIRECTION('center_axis',(0.,0.,-1.));
#1567=DIRECTION('ref_axis',(1.,0.,0.));
#1568=DIRECTION('',(1.,0.,0.));
#1569=DIRECTION('center_axis',(0.,0.,1.));
#1570=DIRECTION('ref_axis',(1.,0.,0.));
#1571=DIRECTION('',(0.,0.,1.));
#1572=DIRECTION('center_axis',(0.,0.,1.));
#1573=DIRECTION('ref_axis',(1.,0.,0.));
#1574=DIRECTION('center_axis',(-8.30073289439369E-16,1.,0.));
#1575=DIRECTION('ref_axis',(-1.,-8.30073289439369E-16,0.));
#1576=DIRECTION('',(0.,0.,1.));
#1577=DIRECTION('',(-1.,-8.30073289439369E-16,0.));
#1578=DIRECTION('center_axis',(0.,-1.,0.));
#1579=DIRECTION('ref_axis',(1.,0.,0.));
#1580=DIRECTION('',(0.,0.,1.));
#1581=DIRECTION('',(1.,0.,0.));
#1582=DIRECTION('',(0.,0.,1.));
#1583=DIRECTION('center_axis',(1.,-2.77555756156289E-16,0.));
#1584=DIRECTION('ref_axis',(2.77555756156289E-16,1.,0.));
#1585=DIRECTION('',(0.,0.,-1.));
#1586=DIRECTION('',(2.77555756156289E-16,1.,0.));
#1587=DIRECTION('',(0.,0.,1.));
#1588=DIRECTION('center_axis',(0.,0.,1.));
#1589=DIRECTION('ref_axis',(5.55111512312575E-15,-1.,0.));
#1590=DIRECTION('center_axis',(0.,0.,1.));
#1591=DIRECTION('ref_axis',(5.55111512312575E-15,-1.,0.));
#1592=DIRECTION('center_axis',(0.,0.,1.));
#1593=DIRECTION('ref_axis',(-1.,0.,0.));
#1594=DIRECTION('',(1.,0.,0.));
#1595=DIRECTION('center_axis',(0.,0.,-1.));
#1596=DIRECTION('ref_axis',(0.,1.,0.));
#1597=DIRECTION('',(0.,1.,0.));
#1598=DIRECTION('center_axis',(1.,0.,0.));
#1599=DIRECTION('ref_axis',(0.,1.,0.));
#1600=DIRECTION('',(0.,0.,1.));
#1601=DIRECTION('',(0.,1.,0.));
#1602=DIRECTION('',(0.,0.,1.));
#1603=DIRECTION('center_axis',(0.,0.,1.));
#1604=DIRECTION('ref_axis',(0.,1.,0.));
#1605=DIRECTION('',(0.,0.,1.));
#1606=DIRECTION('center_axis',(0.,0.,-1.));
#1607=DIRECTION('ref_axis',(0.,1.,0.));
#1608=DIRECTION('center_axis',(0.,0.,1.));
#1609=DIRECTION('ref_axis',(-1.,0.,0.));
#1610=DIRECTION('',(1.,8.30073289439369E-16,0.));
#1611=DIRECTION('center_axis',(0.,0.,1.));
#1612=DIRECTION('ref_axis',(0.,1.,0.));
#1613=DIRECTION('',(1.,8.30073289439369E-16,0.));
#1614=DIRECTION('center_axis',(0.,0.,-1.));
#1615=DIRECTION('ref_axis',(-1.,0.,0.));
#1616=DIRECTION('',(1.,0.,0.));
#1617=DIRECTION('center_axis',(0.,0.,-1.));
#1618=DIRECTION('ref_axis',(1.,0.,0.));
#1619=DIRECTION('',(0.,-1.,0.));
#1620=DIRECTION('center_axis',(0.,1.,0.));
#1621=DIRECTION('ref_axis',(-0.707106781186548,0.,-0.707106781186547));
#1622=DIRECTION('center_axis',(0.,1.,0.));
#1623=DIRECTION('ref_axis',(-0.707106781186548,0.,-0.707106781186547));
#1624=DIRECTION('',(0.,-1.,0.));
#1625=DIRECTION('',(0.,1.,0.));
#1626=DIRECTION('center_axis',(0.,1.,0.));
#1627=DIRECTION('ref_axis',(0.707106781186548,0.,-0.707106781186547));
#1628=DIRECTION('center_axis',(-1.,0.,0.));
#1629=DIRECTION('ref_axis',(0.,0.,1.));
#1630=DIRECTION('',(0.,0.,-1.));
#1631=DIRECTION('center_axis',(1.,0.,6.93889390390723E-17));
#1632=DIRECTION('ref_axis',(6.93889390390723E-17,0.,-1.));
#1633=DIRECTION('',(0.,-1.,0.));
#1634=DIRECTION('',(-6.93889390390723E-17,0.,1.));
#1635=DIRECTION('center_axis',(0.,1.,0.));
#1636=DIRECTION('ref_axis',(-1.,0.,0.));
#1637=DIRECTION('',(-1.,0.,0.));
#1638=DIRECTION('center_axis',(0.,0.,1.));
#1639=DIRECTION('ref_axis',(1.,0.,0.));
#1640=DIRECTION('center_axis',(0.,1.,0.));
#1641=DIRECTION('ref_axis',(-1.,0.,0.));
#1642=DIRECTION('center_axis',(0.,0.,1.));
#1643=DIRECTION('ref_axis',(0.707106781186547,-0.707106781186548,0.));
#1644=DIRECTION('',(0.,0.,-1.));
#1645=DIRECTION('center_axis',(0.,0.,1.));
#1646=DIRECTION('ref_axis',(0.707106781186547,-0.707106781186548,0.));
#1647=DIRECTION('center_axis',(0.,0.,1.));
#1648=DIRECTION('ref_axis',(0.707106781186547,0.707106781186548,0.));
#1649=DIRECTION('center_axis',(0.,0.,1.));
#1650=DIRECTION('ref_axis',(0.707106781186547,0.707106781186548,0.));
#1651=DIRECTION('',(0.,0.,1.));
#1652=DIRECTION('center_axis',(0.,0.,1.));
#1653=DIRECTION('ref_axis',(-0.707106781186547,0.707106781186548,0.));
#1654=DIRECTION('',(0.,0.,-1.));
#1655=DIRECTION('center_axis',(0.,0.,1.));
#1656=DIRECTION('ref_axis',(-0.707106781186547,0.707106781186548,0.));
#1657=DIRECTION('center_axis',(0.,0.,1.));
#1658=DIRECTION('ref_axis',(-0.707106781186547,-0.707106781186548,0.));
#1659=DIRECTION('center_axis',(0.,0.,1.));
#1660=DIRECTION('ref_axis',(-0.707106781186547,-0.707106781186548,0.));
#1661=DIRECTION('',(0.,0.,1.));
#1662=DIRECTION('center_axis',(-1.,0.,0.));
#1663=DIRECTION('ref_axis',(0.,-1.,0.));
#1664=DIRECTION('',(0.,0.,1.));
#1665=DIRECTION('center_axis',(0.,0.,1.));
#1666=DIRECTION('ref_axis',(1.,0.,0.));
#1667=DIRECTION('',(0.,0.,1.));
#1668=DIRECTION('center_axis',(0.,-1.,0.));
#1669=DIRECTION('ref_axis',(1.,0.,0.));
#1670=DIRECTION('center_axis',(0.,0.,1.));
#1671=DIRECTION('ref_axis',(-1.,0.,0.));
#1672=DIRECTION('center_axis',(0.,0.,1.));
#1673=DIRECTION('ref_axis',(0.,1.,0.));
#1674=DIRECTION('center_axis',(0.,1.,0.));
#1675=DIRECTION('ref_axis',(-1.,0.,0.));
#1676=DIRECTION('',(-1.,0.,0.));
#1677=DIRECTION('center_axis',(0.,-1.,0.));
#1678=DIRECTION('ref_axis',(1.,0.,0.));
#1679=DIRECTION('',(1.,0.,0.));
#1680=DIRECTION('center_axis',(0.,0.,1.));
#1681=DIRECTION('ref_axis',(1.,0.,0.));
#1682=CARTESIAN_POINT('',(0.,0.,0.));
#1683=CARTESIAN_POINT('Origin',(-5.,-95.2,14.));
#1684=CARTESIAN_POINT('',(-7.,-104.2,14.));
#1685=CARTESIAN_POINT('',(-5.,-104.2,16.));
#1686=CARTESIAN_POINT('Origin',(-5.,-104.2,14.));
#1687=CARTESIAN_POINT('',(-5.,-92.2,16.));
#1688=CARTESIAN_POINT('',(-5.,-95.2,16.));
#1689=CARTESIAN_POINT('',(-7.,-92.2,14.));
#1690=CARTESIAN_POINT('Origin',(-5.,-92.2,14.));
#1691=CARTESIAN_POINT('',(-7.,-95.2,14.));
#1692=CARTESIAN_POINT('Origin',(1.11022302462516E-15,-98.2,16.));
#1693=CARTESIAN_POINT('',(-3.25,-104.2,16.));
#1694=CARTESIAN_POINT('',(-7.,-104.2,16.));
#1695=CARTESIAN_POINT('',(-3.25,-92.2,16.));
#1696=CARTESIAN_POINT('',(-3.25,-101.2,16.));
#1697=CARTESIAN_POINT('',(7.,-92.2,16.));
#1698=CARTESIAN_POINT('Origin',(-7.,-104.2,6.));
#1699=CARTESIAN_POINT('',(-7.,-104.2,8.));
#1700=CARTESIAN_POINT('',(-7.,-104.2,6.));
#1701=CARTESIAN_POINT('',(-9.,-104.2,6.));
#1702=CARTESIAN_POINT('Origin',(-9.,-104.2,8.));
#1703=CARTESIAN_POINT('',(9.,-104.2,6.));
#1704=CARTESIAN_POINT('',(-3.5,-104.2,6.));
#1705=CARTESIAN_POINT('',(7.,-104.2,8.));
#1706=CARTESIAN_POINT('Origin',(9.,-104.2,8.));
#1707=CARTESIAN_POINT('',(7.,-104.2,14.));
#1708=CARTESIAN_POINT('',(7.,-104.2,6.));
#1709=CARTESIAN_POINT('',(5.,-104.2,16.));
#1710=CARTESIAN_POINT('Origin',(5.,-104.2,14.));
#1711=CARTESIAN_POINT('',(3.25,-104.2,16.));
#1712=CARTESIAN_POINT('',(-7.,-104.2,16.));
#1713=CARTESIAN_POINT('',(3.25,-104.2,11.25));
#1714=CARTESIAN_POINT('',(3.25,-104.2,11.));
#1715=CARTESIAN_POINT('',(-3.25,-104.2,11.25));
#1716=CARTESIAN_POINT('Origin',(0.,-104.2,11.25));
#1717=CARTESIAN_POINT('',(-3.25,-104.2,7.));
#1718=CARTESIAN_POINT('Origin',(5.,-101.2,14.));
#1719=CARTESIAN_POINT('',(7.,-92.2,14.));
#1720=CARTESIAN_POINT('',(5.,-92.2,16.));
#1721=CARTESIAN_POINT('Origin',(5.,-92.2,14.));
#1722=CARTESIAN_POINT('',(5.,-101.2,16.));
#1723=CARTESIAN_POINT('',(7.,-101.2,14.));
#1724=CARTESIAN_POINT('Origin',(7.,-104.2,6.));
#1725=CARTESIAN_POINT('',(7.,-92.2,8.));
#1726=CARTESIAN_POINT('',(7.,-52.1,8.));
#1727=CARTESIAN_POINT('',(7.,-92.2,6.));
#1728=CARTESIAN_POINT('Origin',(-9.,-46.1,8.));
#1729=CARTESIAN_POINT('',(-9.,-92.2,6.));
#1730=CARTESIAN_POINT('',(-7.,-92.2,8.));
#1731=CARTESIAN_POINT('Origin',(-9.,-92.2,8.));
#1732=CARTESIAN_POINT('',(-9.,-46.1,6.));
#1733=CARTESIAN_POINT('',(-7.,-46.1,8.));
#1734=CARTESIAN_POINT('Origin',(-7.,-92.2,6.));
#1735=CARTESIAN_POINT('',(-7.,-92.2,6.));
#1736=CARTESIAN_POINT('Origin',(9.,-52.1,8.));
#1737=CARTESIAN_POINT('',(9.,-92.2,6.));
#1738=CARTESIAN_POINT('Origin',(9.,-92.2,8.));
#1739=CARTESIAN_POINT('',(9.,-52.1,6.));
#1740=CARTESIAN_POINT('Origin',(-10.7,-92.2,6.));
#1741=CARTESIAN_POINT('',(10.7,-92.2,6.));
#1742=CARTESIAN_POINT('',(-5.34999999999996,-92.2,6.));
#1743=CARTESIAN_POINT('',(10.7,-92.2,8.));
#1744=CARTESIAN_POINT('',(10.7,-92.2,6.));
#1745=CARTESIAN_POINT('',(10.7,-92.2,8.));
#1746=CARTESIAN_POINT('Origin',(0.,0.,6.));
#1747=CARTESIAN_POINT('',(-17.,117.,6.));
#1748=CARTESIAN_POINT('',(-17.,-117.,6.));
#1749=CARTESIAN_POINT('',(-17.,125.,6.));
#1750=CARTESIAN_POINT('',(-9.,-125.,6.));
#1751=CARTESIAN_POINT('Origin',(-9.,-117.,6.));
#1752=CARTESIAN_POINT('',(9.,-125.,6.));
#1753=CARTESIAN_POINT('',(-17.,-125.,6.));
#1754=CARTESIAN_POINT('',(17.,-117.,6.));
#1755=CARTESIAN_POINT('Origin',(9.,-117.,6.));
#1756=CARTESIAN_POINT('',(17.,117.,6.));
#1757=CARTESIAN_POINT('',(17.,-125.,6.));
#1758=CARTESIAN_POINT('',(9.,125.,6.));
#1759=CARTESIAN_POINT('Origin',(9.,117.,6.));
#1760=CARTESIAN_POINT('',(-9.,125.,6.));
#1761=CARTESIAN_POINT('',(17.,125.,6.));
#1762=CARTESIAN_POINT('Origin',(-9.,117.,6.));
#1763=CARTESIAN_POINT('',(-10.7,-92.2,6.));
#1764=CARTESIAN_POINT('',(-5.34999999999996,-92.2,6.));
#1765=CARTESIAN_POINT('',(-14.7,-88.2,6.));
#1766=CARTESIAN_POINT('Origin',(-10.7,-88.2,6.));
#1767=CARTESIAN_POINT('',(-14.7,88.2,6.));
#1768=CARTESIAN_POINT('',(-14.7,44.1,6.));
#1769=CARTESIAN_POINT('',(-10.7,92.2,6.));
#1770=CARTESIAN_POINT('Origin',(-10.7,88.2,6.));
#1771=CARTESIAN_POINT('',(10.7,92.2,6.));
#1772=CARTESIAN_POINT('',(5.34999999999996,92.2,6.));
#1773=CARTESIAN_POINT('',(14.7,88.2,6.));
#1774=CARTESIAN_POINT('Origin',(10.7,88.2,6.));
#1775=CARTESIAN_POINT('',(14.7,-88.2,6.));
#1776=CARTESIAN_POINT('',(14.7,-44.1,6.));
#1777=CARTESIAN_POINT('Origin',(10.7,-88.2,6.));
#1778=CARTESIAN_POINT('',(2.6,115.,6.));
#1779=CARTESIAN_POINT('Origin',(0.,115.,6.));
#1780=CARTESIAN_POINT('',(2.6,-115.,6.));
#1781=CARTESIAN_POINT('Origin',(0.,-115.,6.));
#1782=CARTESIAN_POINT('Origin',(0.,115.,5.75));
#1783=CARTESIAN_POINT('',(2.1,115.,5.5));
#1784=CARTESIAN_POINT('',(2.35,115.,5.75));
#1785=CARTESIAN_POINT('',(-2.1,115.,5.5));
#1786=CARTESIAN_POINT('Origin',(0.,115.,5.5));
#1787=CARTESIAN_POINT('Origin',(0.,115.,5.5));
#1788=CARTESIAN_POINT('Origin',(0.,115.,2.7));
#1789=CARTESIAN_POINT('',(-2.1,115.,0.));
#1790=CARTESIAN_POINT('',(-2.1,115.,2.7));
#1791=CARTESIAN_POINT('Origin',(0.,115.,0.));
#1792=CARTESIAN_POINT('Origin',(0.,-115.,5.75));
#1793=CARTESIAN_POINT('',(2.1,-115.,5.5));
#1794=CARTESIAN_POINT('',(2.35,-115.,5.75));
#1795=CARTESIAN_POINT('',(-2.1,-115.,5.5));
#1796=CARTESIAN_POINT('Origin',(0.,-115.,5.5));
#1797=CARTESIAN_POINT('Origin',(0.,-115.,5.5));
#1798=CARTESIAN_POINT('Origin',(0.,-115.,2.7));
#1799=CARTESIAN_POINT('',(-2.1,-115.,0.));
#1800=CARTESIAN_POINT('',(-2.1,-115.,2.7));
#1801=CARTESIAN_POINT('Origin',(0.,-115.,0.));
#1802=CARTESIAN_POINT('Origin',(-12.7,-82.2,6.));
#1803=CARTESIAN_POINT('',(-12.7,-82.2,6.));
#1804=CARTESIAN_POINT('',(-8.69999999999999,-82.2,6.));
#1805=CARTESIAN_POINT('',(-6.35,-82.2,6.));
#1806=CARTESIAN_POINT('',(-12.7,-82.2,6.6));
#1807=CARTESIAN_POINT('',(-12.7,-82.2,6.));
#1808=CARTESIAN_POINT('',(-8.69999999999999,-82.2,6.6));
#1809=CARTESIAN_POINT('',(-12.7,-82.2,6.6));
#1810=CARTESIAN_POINT('',(-8.69999999999999,-82.2,6.));
#1811=CARTESIAN_POINT('Origin',(-4.69999999999999,-86.2,6.));
#1812=CARTESIAN_POINT('',(-4.69999999999999,-86.2,6.));
#1813=CARTESIAN_POINT('',(-4.69999999999999,-90.2,6.));
#1814=CARTESIAN_POINT('',(-4.70000000000001,-43.1,6.));
#1815=CARTESIAN_POINT('',(-4.69999999999999,-86.2,6.6));
#1816=CARTESIAN_POINT('',(-4.69999999999999,-86.2,6.));
#1817=CARTESIAN_POINT('',(-4.69999999999999,-90.2,6.6));
#1818=CARTESIAN_POINT('',(-4.69999999999999,-86.2,6.6));
#1819=CARTESIAN_POINT('',(-4.69999999999999,-90.2,6.));
#1820=CARTESIAN_POINT('Origin',(-8.70000000000001,-86.2,6.));
#1821=CARTESIAN_POINT('Origin',(-8.70000000000001,-86.2,6.));
#1822=CARTESIAN_POINT('Origin',(-8.70000000000001,-86.2,6.6));
#1823=CARTESIAN_POINT('Origin',(-8.69999999999999,-86.2,6.6));
#1824=CARTESIAN_POINT('',(-12.7,-88.2,6.6));
#1825=CARTESIAN_POINT('',(-12.7,-87.2,6.6));
#1826=CARTESIAN_POINT('',(-10.7,-90.2,6.6));
#1827=CARTESIAN_POINT('Origin',(-10.7,-88.2,6.6));
#1828=CARTESIAN_POINT('',(1.,-90.2,6.6));
#1829=CARTESIAN_POINT('Origin',(0.,0.,6.));
#1830=CARTESIAN_POINT('',(4.69999999999999,-90.2,6.));
#1831=CARTESIAN_POINT('',(5.35,-90.2,6.));
#1832=CARTESIAN_POINT('',(4.69999999999999,-86.2,6.));
#1833=CARTESIAN_POINT('',(4.70000000000001,-43.1,6.));
#1834=CARTESIAN_POINT('',(8.69999999999999,-82.2,6.));
#1835=CARTESIAN_POINT('Origin',(8.70000000000001,-86.2,6.));
#1836=CARTESIAN_POINT('',(12.7,-82.2,6.));
#1837=CARTESIAN_POINT('',(6.35,-82.2,6.));
#1838=CARTESIAN_POINT('',(12.7,82.2,6.));
#1839=CARTESIAN_POINT('',(12.7,44.1,6.));
#1840=CARTESIAN_POINT('',(8.69999999999999,82.2,6.));
#1841=CARTESIAN_POINT('',(6.35,82.2,6.));
#1842=CARTESIAN_POINT('',(4.69999999999999,86.2,6.));
#1843=CARTESIAN_POINT('Origin',(8.70000000000001,86.2,6.));
#1844=CARTESIAN_POINT('',(4.69999999999999,90.2,6.));
#1845=CARTESIAN_POINT('',(4.70000000000001,43.1,6.));
#1846=CARTESIAN_POINT('',(-4.69999999999999,90.2,6.));
#1847=CARTESIAN_POINT('',(-5.35,90.2,6.));
#1848=CARTESIAN_POINT('',(-4.69999999999999,86.2,6.));
#1849=CARTESIAN_POINT('',(-4.70000000000001,43.1,6.));
#1850=CARTESIAN_POINT('',(-8.69999999999999,82.2,6.));
#1851=CARTESIAN_POINT('Origin',(-8.70000000000001,86.2,6.));
#1852=CARTESIAN_POINT('',(-12.7,82.2,6.));
#1853=CARTESIAN_POINT('',(-6.35,82.2,6.));
#1854=CARTESIAN_POINT('',(-12.7,-44.1,6.));
#1855=CARTESIAN_POINT('Origin',(-17.,125.,0.));
#1856=CARTESIAN_POINT('',(-17.,117.,0.));
#1857=CARTESIAN_POINT('',(-17.,117.,0.));
#1858=CARTESIAN_POINT('',(-17.,-117.,0.));
#1859=CARTESIAN_POINT('',(-17.,125.,0.));
#1860=CARTESIAN_POINT('',(-17.,-117.,0.));
#1861=CARTESIAN_POINT('Origin',(-14.7,88.2,6.));
#1862=CARTESIAN_POINT('',(-14.7,-88.2,8.));
#1863=CARTESIAN_POINT('',(-14.7,-88.2,6.));
#1864=CARTESIAN_POINT('',(-14.7,88.2,8.));
#1865=CARTESIAN_POINT('',(-14.7,-88.2,8.));
#1866=CARTESIAN_POINT('',(-14.7,88.2,6.));
#1867=CARTESIAN_POINT('Origin',(-10.7,-88.2,6.));
#1868=CARTESIAN_POINT('',(-10.7,-92.2,8.));
#1869=CARTESIAN_POINT('',(-10.7,-92.2,6.));
#1870=CARTESIAN_POINT('Origin',(-10.7,-88.2,8.));
#1871=CARTESIAN_POINT('Origin',(-10.7,-92.2,6.));
#1872=CARTESIAN_POINT('',(10.7,-92.2,8.));
#1873=CARTESIAN_POINT('Origin',(12.7,-82.2,6.));
#1874=CARTESIAN_POINT('',(8.69999999999999,-82.2,6.6));
#1875=CARTESIAN_POINT('',(8.69999999999999,-82.2,6.));
#1876=CARTESIAN_POINT('',(12.7,-82.2,6.6));
#1877=CARTESIAN_POINT('',(12.7,-82.2,6.6));
#1878=CARTESIAN_POINT('',(12.7,-82.2,6.));
#1879=CARTESIAN_POINT('Origin',(4.69999999999999,-86.2,6.));
#1880=CARTESIAN_POINT('',(4.69999999999999,-90.2,6.6));
#1881=CARTESIAN_POINT('',(4.69999999999999,-90.2,6.));
#1882=CARTESIAN_POINT('',(4.69999999999999,-86.2,6.6));
#1883=CARTESIAN_POINT('',(4.69999999999999,-86.2,6.6));
#1884=CARTESIAN_POINT('',(4.69999999999999,-86.2,6.));
#1885=CARTESIAN_POINT('Origin',(8.70000000000001,-86.2,6.));
#1886=CARTESIAN_POINT('Origin',(8.70000000000001,-86.2,6.6));
#1887=CARTESIAN_POINT('Origin',(8.69999999999999,-86.2,6.6));
#1888=CARTESIAN_POINT('',(10.7,-90.2,6.6));
#1889=CARTESIAN_POINT('',(9.7,-90.2,6.6));
#1890=CARTESIAN_POINT('',(12.7,-88.2,6.6));
#1891=CARTESIAN_POINT('Origin',(10.7,-88.2,6.6));
#1892=CARTESIAN_POINT('',(12.7,1.00000000000001,6.6));
#1893=CARTESIAN_POINT('Origin',(10.7,-88.2,6.));
#1894=CARTESIAN_POINT('',(10.7,-90.2,8.));
#1895=CARTESIAN_POINT('',(10.7,-90.2,6.));
#1896=CARTESIAN_POINT('',(12.7,-88.2,8.));
#1897=CARTESIAN_POINT('Origin',(10.7,-88.2,8.));
#1898=CARTESIAN_POINT('',(12.7,-88.2,6.));
#1899=CARTESIAN_POINT('Origin',(10.7,-90.2,6.));
#1900=CARTESIAN_POINT('',(-10.7,-90.2,8.));
#1901=CARTESIAN_POINT('',(-10.7,-90.2,6.));
#1902=CARTESIAN_POINT('',(10.7,-90.2,8.));
#1903=CARTESIAN_POINT('Origin',(10.7,-88.2,6.));
#1904=CARTESIAN_POINT('',(14.7,-88.2,8.));
#1905=CARTESIAN_POINT('',(14.7,-88.2,6.));
#1906=CARTESIAN_POINT('Origin',(10.7,-88.2,8.));
#1907=CARTESIAN_POINT('Origin',(14.7,-88.2,6.));
#1908=CARTESIAN_POINT('',(14.7,88.2,8.));
#1909=CARTESIAN_POINT('',(14.7,88.2,6.));
#1910=CARTESIAN_POINT('',(14.7,88.2,8.));
#1911=CARTESIAN_POINT('Origin',(17.,-125.,0.));
#1912=CARTESIAN_POINT('',(17.,-117.,0.));
#1913=CARTESIAN_POINT('',(17.,117.,0.));
#1914=CARTESIAN_POINT('',(17.,-125.,0.));
#1915=CARTESIAN_POINT('',(17.,117.,0.));
#1916=CARTESIAN_POINT('',(17.,-117.,0.));
#1917=CARTESIAN_POINT('Origin',(12.7,82.2,6.));
#1918=CARTESIAN_POINT('',(12.7,82.2,6.6));
#1919=CARTESIAN_POINT('',(12.7,82.2,6.));
#1920=CARTESIAN_POINT('',(8.69999999999999,82.2,6.6));
#1921=CARTESIAN_POINT('',(12.7,82.2,6.6));
#1922=CARTESIAN_POINT('',(8.69999999999999,82.2,6.));
#1923=CARTESIAN_POINT('Origin',(4.69999999999999,86.2,6.));
#1924=CARTESIAN_POINT('',(4.69999999999999,86.2,6.6));
#1925=CARTESIAN_POINT('',(4.69999999999999,86.2,6.));
#1926=CARTESIAN_POINT('',(4.69999999999999,90.2,6.6));
#1927=CARTESIAN_POINT('',(4.69999999999999,86.2,6.6));
#1928=CARTESIAN_POINT('',(4.69999999999999,90.2,6.));
#1929=CARTESIAN_POINT('Origin',(8.70000000000001,86.2,6.));
#1930=CARTESIAN_POINT('Origin',(8.70000000000001,86.2,6.6));
#1931=CARTESIAN_POINT('Origin',(8.69999999999999,86.2,6.6));
#1932=CARTESIAN_POINT('',(12.7,88.2,6.6));
#1933=CARTESIAN_POINT('',(12.7,87.2,6.6));
#1934=CARTESIAN_POINT('',(10.7,90.2,6.6));
#1935=CARTESIAN_POINT('Origin',(10.7,88.2,6.6));
#1936=CARTESIAN_POINT('',(-1.,90.2,6.6));
#1937=CARTESIAN_POINT('Origin',(10.7,88.2,6.));
#1938=CARTESIAN_POINT('',(10.7,92.2,8.));
#1939=CARTESIAN_POINT('',(10.7,92.2,6.));
#1940=CARTESIAN_POINT('Origin',(10.7,88.2,8.));
#1941=CARTESIAN_POINT('Origin',(10.7,92.2,6.));
#1942=CARTESIAN_POINT('',(-10.7,92.2,8.));
#1943=CARTESIAN_POINT('',(-10.7,92.2,6.));
#1944=CARTESIAN_POINT('',(-10.7,92.2,8.));
#1945=CARTESIAN_POINT('Origin',(-12.7,82.2,6.));
#1946=CARTESIAN_POINT('',(-8.69999999999999,82.2,6.6));
#1947=CARTESIAN_POINT('',(-8.69999999999999,82.2,6.));
#1948=CARTESIAN_POINT('',(-12.7,82.2,6.6));
#1949=CARTESIAN_POINT('',(-12.7,82.2,6.6));
#1950=CARTESIAN_POINT('',(-12.7,82.2,6.));
#1951=CARTESIAN_POINT('Origin',(-4.69999999999999,86.2,6.));
#1952=CARTESIAN_POINT('',(-4.69999999999999,90.2,6.6));
#1953=CARTESIAN_POINT('',(-4.69999999999999,90.2,6.));
#1954=CARTESIAN_POINT('',(-4.69999999999999,86.2,6.6));
#1955=CARTESIAN_POINT('',(-4.69999999999999,86.2,6.6));
#1956=CARTESIAN_POINT('',(-4.69999999999999,86.2,6.));
#1957=CARTESIAN_POINT('Origin',(-8.70000000000001,86.2,6.));
#1958=CARTESIAN_POINT('Origin',(-8.70000000000001,86.2,6.6));
#1959=CARTESIAN_POINT('Origin',(-8.69999999999999,86.2,6.6));
#1960=CARTESIAN_POINT('',(-10.7,90.2,6.6));
#1961=CARTESIAN_POINT('',(-9.7,90.2,6.6));
#1962=CARTESIAN_POINT('',(-12.7,88.2,6.6));
#1963=CARTESIAN_POINT('Origin',(-10.7,88.2,6.6));
#1964=CARTESIAN_POINT('',(-12.7,-1.00000000000001,6.6));
#1965=CARTESIAN_POINT('Origin',(-12.7,-88.2,6.));
#1966=CARTESIAN_POINT('',(-12.7,88.2,8.));
#1967=CARTESIAN_POINT('',(-12.7,88.2,6.));
#1968=CARTESIAN_POINT('',(-12.7,-88.2,8.));
#1969=CARTESIAN_POINT('',(-12.7,-88.2,8.));
#1970=CARTESIAN_POINT('',(-12.7,-88.2,6.));
#1971=CARTESIAN_POINT('Origin',(-10.7,88.2,6.));
#1972=CARTESIAN_POINT('',(-10.7,90.2,8.));
#1973=CARTESIAN_POINT('',(-10.7,90.2,6.));
#1974=CARTESIAN_POINT('Origin',(-10.7,88.2,8.));
#1975=CARTESIAN_POINT('Origin',(0.,0.,8.));
#1976=CARTESIAN_POINT('',(0.,-92.2,8.));
#1977=CARTESIAN_POINT('',(10.7,-92.2,8.));
#1978=CARTESIAN_POINT('Origin',(-10.7,88.2,8.));
#1979=CARTESIAN_POINT('',(10.7,-92.2,8.));
#1980=CARTESIAN_POINT('Origin',(-10.7,-88.2,8.));
#1981=CARTESIAN_POINT('',(10.7,90.2,8.));
#1982=CARTESIAN_POINT('',(-10.7,90.2,8.));
#1983=CARTESIAN_POINT('',(12.7,88.2,8.));
#1984=CARTESIAN_POINT('Origin',(10.7,88.2,8.));
#1985=CARTESIAN_POINT('',(12.7,88.2,8.));
#1986=CARTESIAN_POINT('Origin',(0.,-52.1,11.25));
#1987=CARTESIAN_POINT('',(-3.25,-92.2,11.25));
#1988=CARTESIAN_POINT('Origin',(0.,-92.2,11.25));
#1989=CARTESIAN_POINT('',(-3.25,-52.1,11.25));
#1990=CARTESIAN_POINT('',(3.25,-92.2,11.25));
#1991=CARTESIAN_POINT('',(3.25,-52.1,11.25));
#1992=CARTESIAN_POINT('Origin',(3.29597460435593E-16,-92.2,11.25));
#1993=CARTESIAN_POINT('Origin',(-3.25,-104.2,8.));
#1994=CARTESIAN_POINT('',(-3.25,-92.2,7.));
#1995=CARTESIAN_POINT('Origin',(3.25,-104.2,16.));
#1996=CARTESIAN_POINT('',(3.25,-92.2,16.));
#1997=CARTESIAN_POINT('',(3.25,-101.2,16.));
#1998=CARTESIAN_POINT('',(3.25,-92.2,11.));
#1999=CARTESIAN_POINT('Origin',(7.,-92.2,6.));
#2000=CARTESIAN_POINT('',(7.,-92.2,16.));
#2001=CARTESIAN_POINT('Origin',(1.11022302462516E-15,-98.2,16.));
#2002=CARTESIAN_POINT('Origin',(7.,-92.2,6.));
#2003=CARTESIAN_POINT('Origin',(9.,-117.,0.));
#2004=CARTESIAN_POINT('',(9.,-125.,0.));
#2005=CARTESIAN_POINT('',(9.,-125.,0.));
#2006=CARTESIAN_POINT('Origin',(9.,-117.,0.));
#2007=CARTESIAN_POINT('Origin',(9.,117.,0.));
#2008=CARTESIAN_POINT('',(9.,125.,0.));
#2009=CARTESIAN_POINT('Origin',(9.,117.,0.));
#2010=CARTESIAN_POINT('',(9.,125.,0.));
#2011=CARTESIAN_POINT('Origin',(-9.,117.,0.));
#2012=CARTESIAN_POINT('',(-9.,125.,0.));
#2013=CARTESIAN_POINT('',(-9.,125.,0.));
#2014=CARTESIAN_POINT('Origin',(-9.,117.,0.));
#2015=CARTESIAN_POINT('Origin',(-9.,-117.,0.));
#2016=CARTESIAN_POINT('',(-9.,-125.,0.));
#2017=CARTESIAN_POINT('Origin',(-9.,-117.,0.));
#2018=CARTESIAN_POINT('',(-9.,-125.,0.));
#2019=CARTESIAN_POINT('Origin',(12.7,88.2,6.));
#2020=CARTESIAN_POINT('',(12.7,88.2,6.));
#2021=CARTESIAN_POINT('Origin',(10.7,88.2,6.));
#2022=CARTESIAN_POINT('',(10.7,90.2,6.));
#2023=CARTESIAN_POINT('Origin',(-10.7,90.2,6.));
#2024=CARTESIAN_POINT('Origin',(-10.7,-88.2,6.));
#2025=CARTESIAN_POINT('Origin',(-10.7,88.2,6.));
#2026=CARTESIAN_POINT('Origin',(17.,125.,0.));
#2027=CARTESIAN_POINT('',(17.,125.,0.));
#2028=CARTESIAN_POINT('Origin',(-17.,-125.,0.));
#2029=CARTESIAN_POINT('',(-17.,-125.,0.));
#2030=CARTESIAN_POINT('Origin',(0.,0.,0.));
#2031=UNCERTAINTY_MEASURE_WITH_UNIT(LENGTH_MEASURE(0.01),#2035,
'DISTANCE_ACCURACY_VALUE',
'Maximum model space distance between geometric entities at asserted c
onnectivities');
#2032=UNCERTAINTY_MEASURE_WITH_UNIT(LENGTH_MEASURE(0.01),#2035,
'DISTANCE_ACCURACY_VALUE',
'Maximum model space distance between geometric entities at asserted c
onnectivities');
#2033=(
GEOMETRIC_REPRESENTATION_CONTEXT(3)
GLOBAL_UNCERTAINTY_ASSIGNED_CONTEXT((#2031))
GLOBAL_UNIT_ASSIGNED_CONTEXT((#2035,#2037,#2038))
REPRESENTATION_CONTEXT('','3D')
);
#2034=(
GEOMETRIC_REPRESENTATION_CONTEXT(3)
GLOBAL_UNCERTAINTY_ASSIGNED_CONTEXT((#2032))
GLOBAL_UNIT_ASSIGNED_CONTEXT((#2035,#2037,#2038))
REPRESENTATION_CONTEXT('','3D')
);
#2035=(
LENGTH_UNIT()
NAMED_UNIT(*)
SI_UNIT(.MILLI.,.METRE.)
);
#2036=(
LENGTH_UNIT()
NAMED_UNIT(*)
SI_UNIT($,.METRE.)
);
#2037=(
NAMED_UNIT(*)
PLANE_ANGLE_UNIT()
SI_UNIT($,.RADIAN.)
);
#2038=(
NAMED_UNIT(*)
SI_UNIT($,.STERADIAN.)
SOLID_ANGLE_UNIT()
);
#2039=SHAPE_DEFINITION_REPRESENTATION(#2040,#2041);
#2040=PRODUCT_DEFINITION_SHAPE('',$,#2043);
#2041=SHAPE_REPRESENTATION('',(#1216),#2033);
#2042=PRODUCT_DEFINITION_CONTEXT('part definition',#2047,'design');
#2043=PRODUCT_DEFINITION('onderkantje','onderkantje v5',#2044,#2042);
#2044=PRODUCT_DEFINITION_FORMATION('',$,#2049);
#2045=PRODUCT_RELATED_PRODUCT_CATEGORY('onderkantje v5',
'onderkantje v5',(#2049));
#2046=APPLICATION_PROTOCOL_DEFINITION('international standard',
'automotive_design',2009,#2047);
#2047=APPLICATION_CONTEXT(
'Core Data for Automotive Mechanical Design Process');
#2048=PRODUCT_CONTEXT('part definition',#2047,'mechanical');
#2049=PRODUCT('onderkantje','onderkantje v5',$,(#2048));
#2050=PRESENTATION_STYLE_ASSIGNMENT((#2054));
#2051=PRESENTATION_STYLE_ASSIGNMENT((#2055));
#2052=PRESENTATION_STYLE_ASSIGNMENT((#2056));
#2053=PRESENTATION_STYLE_ASSIGNMENT((#2057));
#2054=SURFACE_STYLE_USAGE(.BOTH.,#2058);
#2055=SURFACE_STYLE_USAGE(.BOTH.,#2059);
#2056=SURFACE_STYLE_USAGE(.BOTH.,#2060);
#2057=SURFACE_STYLE_USAGE(.BOTH.,#2061);
#2058=SURFACE_SIDE_STYLE('',(#2062));
#2059=SURFACE_SIDE_STYLE('',(#2063));
#2060=SURFACE_SIDE_STYLE('',(#2064));
#2061=SURFACE_SIDE_STYLE('',(#2065));
#2062=SURFACE_STYLE_FILL_AREA(#2066);
#2063=SURFACE_STYLE_FILL_AREA(#2067);
#2064=SURFACE_STYLE_FILL_AREA(#2068);
#2065=SURFACE_STYLE_FILL_AREA(#2069);
#2066=FILL_AREA_STYLE('Steel - Satin',(#2070));
#2067=FILL_AREA_STYLE('Steel - Satin',(#2071));
#2068=FILL_AREA_STYLE('Aluminum - Anodized Rough (Red)',(#2072));
#2069=FILL_AREA_STYLE('Aluminum - Anodized Rough (Blue)',(#2073));
#2070=FILL_AREA_STYLE_COLOUR('Steel - Satin',#2074);
#2071=FILL_AREA_STYLE_COLOUR('Steel - Satin',#2075);
#2072=FILL_AREA_STYLE_COLOUR('Aluminum - Anodized Rough (Red)',#2076);
#2073=FILL_AREA_STYLE_COLOUR('Aluminum - Anodized Rough (Blue)',#2077);
#2074=COLOUR_RGB('Steel - Satin',0.627450980392157,0.627450980392157,0.627450980392157);
#2075=COLOUR_RGB('Steel - Satin',0.858823529411765,0.733333333333333,0.733333333333333);
#2076=COLOUR_RGB('Aluminum - Anodized Rough (Red)',0.854901960784314,0.349019607843137,
0.349019607843137);
#2077=COLOUR_RGB('Aluminum - Anodized Rough (Blue)',0.349019607843137,0.584313725490196,
0.854901960784314);
ENDSEC;
END-ISO-10303-21;
